<?xml version="1.0" standalone="no"?>
<!DOCTYPE svg PUBLIC "-//W3C//DTD SVG 1.1//EN" "http://www.w3.org/Graphics/SVG/1.1/DTD/svg11.dtd" >
<svg xmlns="http://www.w3.org/2000/svg" xmlns:xlink="http://www.w3.org/1999/xlink" version="1.1">
<metadata></metadata>
<defs>
<font id="koratakiregular" horiz-adv-x="1824" >
<font-face units-per-em="2048" ascent="1657" descent="-391" />
<missing-glyph horiz-adv-x="1001" />
<glyph unicode="&#x28;C&#x29;" horiz-adv-x="1744" d="M102 332v975q0 331 330 331h879q331 0 331 -331v-979q0 -328 -331 -328h-879q-330 0 -330 332zM276 332q0 -156 156 -156h879q155 0 155 152v979q0 155 -155 155h-879q-156 0 -156 -155v-975zM465 707v225q0 332 332 332h454v-177h-454q-156 0 -156 -155v-225 q0 -158 156 -158h454v-174h-454q-332 0 -332 332z" />
<glyph unicode="&#x28;R&#x29;" horiz-adv-x="1257" d="M102 819v488q0 331 330 331h391q332 0 332 -331v-492q0 -328 -332 -328h-391q-330 0 -330 332zM258 799q0 -156 156 -156h409q176 0 176 152v530q0 158 -176 158h-409q-156 0 -156 -158v-526zM403 778v606h306q165 0 165 -133v-123q0 -91 -108 -106l113 -244h-156 l-90 230h-96v-230h-134zM537 1128h172q28 0 28 27v68q0 24 -28 24h-172v-119z" />
<glyph horiz-adv-x="0" />
<glyph horiz-adv-x="682" />
<glyph horiz-adv-x="1001" />
<glyph unicode=" "  horiz-adv-x="1001" />
<glyph unicode="&#x09;" horiz-adv-x="1001" />
<glyph unicode="&#xa0;" horiz-adv-x="1001" />
<glyph unicode="!" horiz-adv-x="606" d="M102 0v258h402v-258h-402zM102 481v1157h402v-1157h-402z" />
<glyph unicode="&#x22;" horiz-adv-x="997" d="M102 1399v239h304v-239l-82 -453h-142zM592 1399v239h303v-239l-82 -453h-141z" />
<glyph unicode="#" horiz-adv-x="1269" d="M102 698v191h240v235h-240v193h240v321h162v-321h260v321h164v-321h239v-193h-239v-235h239v-191h-239v-319h-164v319h-260v-319h-162v319h-240zM504 889h260v235h-260v-235z" />
<glyph unicode="$" horiz-adv-x="1744" d="M102 969v198q0 267 316 267h350v204h240v-204h598v-301h-1024q-78 0 -78 -82q0 -90 78 -90h745q315 0 315 -242v-234q0 -272 -315 -272h-319v-213h-240v213h-651v301h1046q78 0 78 82q0 90 -78 90h-745q-316 0 -316 283z" />
<glyph unicode="%" horiz-adv-x="1978" d="M102 1149v250q0 239 293 239h232q295 0 295 -239v-252q0 -238 -295 -238h-232q-293 0 -293 240zM322 1165q0 -49 53 -49h272q55 0 55 47v219q0 48 -55 48h-272q-53 0 -53 -48v-217zM356 0l1012 1638h244l-1014 -1638h-242zM1057 240v249q0 240 293 240h231 q295 0 295 -240v-251q0 -238 -295 -238h-231q-293 0 -293 240zM1276 256q0 -49 53 -49h273q55 0 55 47v219q0 47 -55 47h-273q-53 0 -53 -47v-217z" />
<glyph unicode="&#x26;" horiz-adv-x="2396" d="M102 401v215q0 158 158 226q-139 92 -139 250v147q0 399 473 399h723v-381h-723q-92 0 -92 -63v-131q0 -66 80 -66h1038v260h399v-260h275v-342h-275v-655h-1425q-492 0 -492 401zM502 453q0 -72 92 -72h1026v274h-1036q-82 0 -82 -53v-149z" />
<glyph unicode="'" horiz-adv-x="507" d="M102 1399v239h304v-239l-82 -453h-142z" />
<glyph unicode="(" horiz-adv-x="686" d="M102 817q0 239 57 479.5t177 513.5h246q-132 -298 -195 -539t-63 -456q0 -447 260 -999h-244q-123 273 -180.5 516t-57.5 485z" />
<glyph unicode=")" horiz-adv-x="686" d="M102 -184q260 564 260 999q0 215 -63 456t-195 539h246q120 -273 177 -513.5t57 -479.5q0 -242 -57.5 -485t-180.5 -516h-244z" />
<glyph unicode="*" horiz-adv-x="1122" d="M102 1225l76 229l262 -100v284h248v-282l246 96l86 -229l-258 -101l151 -209l-194 -153l-156 209l-162 -213l-196 149l164 215z" />
<glyph unicode="+" horiz-adv-x="1386" d="M102 731v242h469v469h242v-469h471v-242h-471v-471h-242v471h-469z" />
<glyph unicode="," horiz-adv-x="606" d="M102 0v258h402v-258l-146 -264h-151l47 264h-152z" />
<glyph unicode="-" horiz-adv-x="864" d="M102 547v303h660v-303h-660z" />
<glyph unicode="." horiz-adv-x="606" d="M102 0v258h402v-258h-402z" />
<glyph unicode="/" horiz-adv-x="1601" d="M102 -184l1121 1822h276l-1122 -1822h-275z" />
<glyph unicode="0" horiz-adv-x="2600" d="M102 520v596q0 522 617 522h1163q617 0 617 -522v-596q0 -520 -617 -520h-1163q-617 0 -617 520zM504 520q0 -139 215 -139h1163q215 0 215 139v596q0 141 -215 141h-1163q-215 0 -215 -141v-596z" />
<glyph unicode="1" horiz-adv-x="1175" d="M0 1020l313 618h760v-1638h-381v1257h-127l-123 -237h-442z" />
<glyph unicode="2" horiz-adv-x="2476" d="M102 0v621q0 391 492 391h1286q94 0 94 59v127q0 59 -94 59h-1708v381h1708q494 0 494 -399v-258q0 -350 -494 -350h-1286q-92 0 -92 -60v-190h1818v-381h-2218z" />
<glyph unicode="3" horiz-adv-x="2349" d="M102 0v381h1653q92 0 92 72v149q0 53 -82 53h-1642v342h1644q80 0 80 66v131q0 63 -92 63h-1644v381h1644q473 0 473 -399v-147q0 -158 -139 -250q158 -68 158 -226v-215q0 -401 -492 -401h-1653z" />
<glyph unicode="4" horiz-adv-x="2443" d="M76 330v194l452 893q58 115 144 168t235 53h1186v-948h350v-360h-350v-330h-381v330h-1636zM602 690h1110v567h-743q-33 0 -65.5 -20.5t-49.5 -52.5z" />
<glyph unicode="5" horiz-adv-x="2463" d="M102 0v381h1768q92 0 92 57v133q0 60 -92 60h-1764v1007h2186v-381h-1788v-245h1366q491 0 491 -391v-224q0 -397 -491 -397h-1768z" />
<glyph unicode="6" horiz-adv-x="2611" d="M102 401v838q0 399 494 399h1794v-381h-1794q-92 0 -92 -79v-166h1591q414 0 414 -326v-291q0 -395 -414 -395h-1499q-494 0 -494 401zM504 463q0 -82 92 -82h1395q116 0 116 96v68q0 86 -116 86h-1487v-168z" />
<glyph unicode="7" horiz-adv-x="2320" d="M84 1257v381h2167v-137q0 -144 -117 -264l-1198 -1237h-563l1300 1280q-246 -23 -557 -23h-1032z" />
<glyph unicode="8" horiz-adv-x="2430" d="M102 401v215q0 158 158 226q-139 92 -139 250v147q0 399 473 399h1243q473 0 473 -399v-147q0 -158 -139 -250q158 -68 158 -226v-215q0 -401 -492 -401h-1243q-492 0 -492 401zM502 453q0 -72 92 -72h1243q92 0 92 72v149q0 53 -82 53h-1263q-82 0 -82 -53v-149z M502 1063q0 -66 80 -66h1267q80 0 80 66v131q0 63 -92 63h-1243q-92 0 -92 -63v-131z" />
<glyph unicode="9" horiz-adv-x="2598" d="M102 956v287q0 395 414 395h1487q494 0 494 -401v-838q0 -399 -494 -399h-1782v381h1782q92 0 92 80v170h-1579q-414 0 -414 325zM504 1098q0 -86 117 -86h1474v164q0 81 -92 81h-1382q-117 0 -117 -96v-63z" />
<glyph unicode=":" horiz-adv-x="606" d="M102 0v258h402v-258h-402zM102 616v258h402v-258h-402z" />
<glyph unicode=";" horiz-adv-x="606" d="M102 0v258h402v-258l-146 -264h-151l47 264h-152zM102 616v258h402v-258h-402z" />
<glyph unicode="&#x3c;" horiz-adv-x="1083" d="M90 735v236q0 78 32 127t107 71l721 195v-309l-522 -111q-53 -12 -53 -53v-68q0 -45 53 -57l518 -121v-309l-719 201q-73 23 -105 70.5t-32 127.5z" />
<glyph unicode="=" horiz-adv-x="1386" d="M102 465v242h1182v-242h-1182zM102 997v242h1182v-242h-1182z" />
<glyph unicode="&#x3e;" horiz-adv-x="1083" d="M90 336v309l522 111q6 1 18.5 2t16 2.5t10 6.5t8 15t1.5 27v68q0 42 -54 57l-518 121v309l719 -201q73 -23 105 -70.5t32 -127.5v-236q0 -82 -31.5 -129t-107.5 -70z" />
<glyph unicode="?" horiz-adv-x="1828" d="M74 1257v381h1159q493 0 493 -399v-129q0 -401 -493 -401h-117q-94 0 -94 -60v-215h-399v256q0 340 493 340h117q92 0 92 60v108q0 59 -92 59h-1159zM621 0v258h401v-258h-401z" />
<glyph unicode="@" horiz-adv-x="2043" d="M102 401v838q0 399 494 399h887q231 0 345 -104.5t114 -325.5v-395q0 -340 -459 -340h-565q-316 0 -316 285v121q0 274 316 274h724v66q0 120 -92 120h-995q-133 0 -133 -120v-797q0 -123 133 -123h1370v-299h-1329q-494 0 -494 401zM922 831q0 -81 77 -81h551 q92 0 92 88v84h-643q-77 0 -77 -91z" />
<glyph unicode="A" horiz-adv-x="2617" d="M0 0l858 1499q40 76 89 107.5t151 31.5h413q171 0 250 -137l856 -1501h-460l-185 322h-1329l-180 -322h-463zM838 682h938l-285 500q-42 75 -107 75h-157q-65 0 -109 -77z" />
<glyph unicode="B" horiz-adv-x="2668" d="M102 0v1638h1973q473 0 473 -399v-147q0 -157 -140 -250q158 -68 158 -226v-215q0 -401 -491 -401h-1973zM502 381h1573q92 0 92 72v149q0 53 -82 53h-1583v-274zM502 997h1585q80 0 80 66v131q0 63 -92 63h-1573v-260z" />
<glyph unicode="C" horiz-adv-x="2568" d="M102 401v838q0 399 494 399h1864v-381h-1864q-92 0 -92 -79v-715q0 -82 92 -82h1870v-381h-1870q-494 0 -494 401z" />
<glyph unicode="D" horiz-adv-x="2736" d="M102 0v1638h1915q617 0 617 -522v-596q0 -520 -617 -520h-1915zM502 381h1515q215 0 215 139v596q0 141 -215 141h-1515v-876z" />
<glyph unicode="E" horiz-adv-x="2492" d="M102 401v838q0 399 494 399h1802v-381h-1802q-92 0 -92 -79v-166h1882v-381h-1882v-168q0 -82 92 -82h1808v-381h-1808q-494 0 -494 401z" />
<glyph unicode="F" horiz-adv-x="2453" d="M102 0v1239q0 399 494 399h1782v-381h-1782q-92 0 -92 -79v-187h1861v-381h-1861v-610h-402z" />
<glyph unicode="G" horiz-adv-x="2613" d="M102 401v838q0 399 494 399h1870v-381h-1870q-94 0 -94 -79v-715q0 -82 94 -82h1421q92 0 92 78v542h402v-604q0 -397 -494 -397h-1421q-494 0 -494 401z" />
<glyph unicode="H" horiz-adv-x="2598" d="M102 0v1638h400v-585h1595v585h400v-1638h-400v670h-1595v-670h-400z" />
<glyph unicode="I" horiz-adv-x="604" d="M102 0v1638h400v-1638h-400z" />
<glyph unicode="J" horiz-adv-x="2437" d="M70 401v215h399v-174q0 -61 94 -61h1278q92 0 92 57v1200h402v-1241q0 -397 -494 -397h-1278q-493 0 -493 401z" />
<glyph unicode="K" horiz-adv-x="2461" d="M102 0v1638h400v-604h735l608 604h555l-817 -759l879 -879h-553l-645 664h-762v-664h-400z" />
<glyph unicode="L" horiz-adv-x="2443" d="M102 397v1241h402v-1179q0 -78 92 -78h1786v-381h-1786q-494 0 -494 397z" />
<glyph unicode="M" horiz-adv-x="3123" d="M102 0v1638h400q196 0 314 -71t204 -242l479 -944h131l475 938q88 172 208 245.5t304 73.5h404v-1638h-381v1257h-21q-39 0 -77 -28.5t-58 -67.5l-600 -1161h-641l-602 1161q-20 39 -58.5 67.5t-78.5 28.5h-21v-1257h-381z" />
<glyph unicode="N" horiz-adv-x="2539" d="M102 0v1638h410q161 0 272.5 -51.5t216.5 -169.5l828 -954q43 -52 76 -67t96 -15h45v1257h391v-1638h-412q-168 0 -284.5 54t-220.5 177l-815 949q-44 49 -75 63t-93 14h-45v-1257h-390z" />
<glyph unicode="O" horiz-adv-x="2703" d="M102 520v596q0 522 617 522h1266q616 0 616 -522v-596q0 -520 -616 -520h-1266q-617 0 -617 520zM504 520q0 -139 215 -139h1266q215 0 215 139v596q0 141 -215 141h-1266q-215 0 -215 -141v-596z" />
<glyph unicode="P" horiz-adv-x="2392" d="M102 0v1638h1727q493 0 493 -399v-248q0 -399 -493 -399h-1327v-592h-400zM502 973h1327q92 0 92 59v166q0 59 -92 59h-1327v-284z" />
<glyph unicode="Q" horiz-adv-x="2703" d="M102 520v596q0 522 617 522h1266q616 0 616 -522v-596q0 -520 -616 -520h-1266q-617 0 -617 520zM504 520q0 -139 215 -139h794l-501 485h532l471 -485q185 9 185 139v596q0 141 -215 141h-1266q-215 0 -215 -141v-596z" />
<glyph unicode="R" horiz-adv-x="2615" d="M102 0v1638h1966q474 0 474 -399v-147q0 -416 -428 -416h-177l674 -676h-540l-644 655h-925v-655h-400zM502 997h1575q80 0 80 66v131q0 63 -93 63h-1562v-260z" />
<glyph unicode="S" horiz-adv-x="2549" d="M98 981v258q0 399 494 399h1808v-381h-1808q-94 0 -94 -59v-127q0 -59 94 -59h1368q491 0 491 -391v-224q0 -397 -491 -397h-1808v381h1808q92 0 92 57v133q0 60 -92 60h-1368q-494 0 -494 350z" />
<glyph unicode="T" horiz-adv-x="2500" d="M102 1257v381h2296v-381h-940v-1257h-399v1257h-957z" />
<glyph unicode="U" horiz-adv-x="2629" d="M102 401v1237h400v-1196q0 -61 94 -61h1438q92 0 92 57v1200h401v-1241q0 -397 -493 -397h-1438q-494 0 -494 401z" />
<glyph unicode="V" horiz-adv-x="2590" d="M0 1638h463l665 -1179q44 -78 109 -78h111q63 0 106 76l676 1181h461l-856 -1501q-79 -137 -250 -137h-387q-102 0 -151 31.5t-89 107.5z" />
<glyph unicode="W" horiz-adv-x="3373" d="M0 1638h440l236 -1177q15 -80 76 -80h59q51 0 82 78l448 1179h691l448 -1179q28 -78 82 -78h59q61 0 76 80l236 1177h440l-340 -1439q-23 -88 -99 -143.5t-149 -55.5h-313q-102 0 -183.5 54.5t-117.5 142.5l-422 1069h-125l-422 -1069q-36 -88 -117.5 -142.5 t-183.5 -54.5h-313q-89 0 -157 53.5t-91 145.5z" />
<glyph unicode="X" horiz-adv-x="2711" d="M51 0l879 879l-817 759h559l608 -604h158l610 604h541l-817 -759l878 -879h-549l-645 664h-215l-649 -664h-541z" />
<glyph unicode="Y" horiz-adv-x="2158" d="M0 1638h463l612 -780l623 780h461l-871 -1083v-555h-401v547z" />
<glyph unicode="Z" horiz-adv-x="2486" d="M84 0v207q0 92 63.5 171t198.5 152l1407 764q-402 -22 -782 -22h-879v366h2278v-215q0 -202 -216 -317l-1439 -768q425 29 745 29h948v-367h-2324z" />
<glyph unicode="[" horiz-adv-x="618" d="M102 -184v1994h414v-262h-154v-1474h154v-258h-414z" />
<glyph unicode="\" horiz-adv-x="1601" d="M102 1638h277l1120 -1822h-274z" />
<glyph unicode="]" horiz-adv-x="618" d="M102 74h154v1474h-154v262h414v-1994h-414v258z" />
<glyph unicode="^" horiz-adv-x="1402" d="M102 831l347 807h505l346 -807h-292l-226 562h-151l-228 -562h-301z" />
<glyph unicode="_" horiz-adv-x="2557" d="M102 -82h2354v-229h-2354v229z" />
<glyph unicode="`" horiz-adv-x="671" d="M27 1386v244l645 -149v-181z" />
<glyph unicode="a" horiz-adv-x="1728" d="M102 285v182q0 274 316 274h807v84q0 80 -92 80h-1008v316h1042q459 0 459 -371v-510q0 -340 -459 -340h-749q-316 0 -316 285zM504 406q0 -82 78 -82h551q92 0 92 88v84h-643q-78 0 -78 -90z" />
<glyph unicode="b" d="M102 401v1278h400v-458h727q493 0 493 -402v-418q0 -401 -493 -401h-633q-494 0 -494 401zM502 420q0 -82 94 -82h633q92 0 92 82v403q0 80 -92 80h-727v-483z" />
<glyph unicode="c" horiz-adv-x="1601" d="M102 401v418q0 402 494 402h920v-318h-920q-92 0 -92 -80v-403q0 -82 92 -82h928v-338h-928q-494 0 -494 401z" />
<glyph unicode="d" d="M102 401v418q0 402 494 402h727v458h399v-1278q0 -401 -493 -401h-633q-494 0 -494 401zM504 420q0 -82 92 -82h633q94 0 94 82v483h-727q-92 0 -92 -80v-403z" />
<glyph unicode="e" horiz-adv-x="1728" d="M102 371v510q0 340 459 340h750q315 0 315 -285v-174q0 -136 -77.5 -201t-237.5 -65h-807v-78q0 -80 92 -80h1010v-338h-1045q-459 0 -459 371zM504 731h643q78 0 78 90q0 82 -78 82h-551q-92 0 -92 -88v-84z" />
<glyph unicode="f" horiz-adv-x="913" d="M102 0v1280q0 399 441 399h329v-297h-258q-110 0 -110 -59v-102h368v-318h-368v-903h-402z" />
<glyph unicode="g" d="M102 496v407q0 318 494 318h633q493 0 493 -318v-899q0 -401 -493 -401h-1063v338h1026q129 0 129 114v121h-872q-347 0 -347 320zM502 596q0 -82 94 -82h725v309q0 80 -92 80h-633q-94 0 -94 -80v-227z" />
<glyph unicode="h" horiz-adv-x="1814" d="M102 0v1679h400v-458h717q493 0 493 -402v-819h-401v823q0 80 -92 80h-717v-903h-400z" />
<glyph unicode="i" horiz-adv-x="606" d="M102 1421v258h402v-258h-402zM104 0v1221h400v-1221h-400z" />
<glyph unicode="j" horiz-adv-x="608" d="M-264 -59h258q108 0 108 59v1221h404v-1219q0 -399 -440 -399h-330v338zM102 1421v258h404v-258h-404z" />
<glyph unicode="k" horiz-adv-x="1603" d="M102 0v1679h377v-897h248l379 439h432l-489 -555l555 -666h-449l-387 477h-289v-477h-377z" />
<glyph unicode="l" horiz-adv-x="604" d="M102 0v1679h400v-1679h-400z" />
<glyph unicode="m" horiz-adv-x="2340" d="M102 0v1221h1643q493 0 493 -402v-819h-401v823q0 80 -92 80h-373v-903h-403v903h-467v-903h-400z" />
<glyph unicode="n" d="M102 0v1221h1127q493 0 493 -402v-819h-401v823q0 80 -92 80h-727v-903h-400z" />
<glyph unicode="o" d="M102 401v418q0 402 494 402h633q493 0 493 -402v-422q0 -397 -493 -397h-633q-494 0 -494 401zM504 420q0 -82 92 -82h633q94 0 94 78v407q0 80 -94 80h-633q-92 0 -92 -80v-403z" />
<glyph unicode="p" d="M102 -397v1216q0 402 494 402h633q493 0 493 -402v-418q0 -401 -493 -401h-727v-397h-400zM502 338h727q92 0 92 80v403q0 82 -92 82h-633q-94 0 -94 -82v-483z" />
<glyph unicode="q" d="M102 401v418q0 402 494 402h633q493 0 493 -402v-1216h-399v397h-727q-494 0 -494 401zM504 418q0 -80 92 -80h727v483q0 82 -94 82h-633q-92 0 -92 -82v-403z" />
<glyph unicode="r" horiz-adv-x="1165" d="M102 0v819q0 402 494 402h530v-318h-530q-92 0 -92 -80v-823h-402z" />
<glyph unicode="s" horiz-adv-x="1701" d="M86 756v198q0 267 315 267h1188v-318h-1024q-78 0 -78 -74q0 -71 78 -71h746q315 0 315 -252v-234q0 -272 -315 -272h-1211v338h1047q78 0 78 88q0 74 -78 74h-746q-315 0 -315 256z" />
<glyph unicode="t" horiz-adv-x="843" d="M16 903v318h205v376h383v-376h223v-318h-223v-903h-383v903h-205z" />
<glyph unicode="u" horiz-adv-x="1794" d="M102 401v820h400v-826q0 -57 94 -57h602q92 0 92 57v826h402v-824q0 -397 -494 -397h-602q-494 0 -494 401z" />
<glyph unicode="v" horiz-adv-x="2029" d="M0 1221h453l428 -805q25 -52 44.5 -65t63.5 -13h41q40 0 59.5 13t47.5 63l438 807h455l-629 -1084q-79 -137 -250 -137h-285q-159 0 -239 139z" />
<glyph unicode="w" horiz-adv-x="2701" d="M0 1221h430l148 -803q15 -80 73 -80h43q52 0 80 78l277 805h602l278 -805q28 -78 80 -78h43q59 0 74 80l143 803h430l-245 -1022q-23 -93 -89 -146t-153 -53h-291q-102 0 -184 55t-111 142l-235 706h-82l-236 -706q-30 -87 -110.5 -142t-182.5 -55h-290q-87 0 -153 53 t-89 146z" />
<glyph unicode="x" horiz-adv-x="1894" d="M25 0l555 666l-490 555h436l371 -439h104l371 439h432l-489 -555l555 -666h-449l-379 477h-190l-379 -477h-448z" />
<glyph unicode="y" d="M102 496v725h400v-625q0 -82 94 -82h725v707h401v-1217q0 -401 -493 -401h-1063v338h1026q129 0 129 114v121h-872q-347 0 -347 320z" />
<glyph unicode="z" horiz-adv-x="1769" d="M76 903v318h1581v-209q0 -158 -176 -250l-850 -453q317 29 536 29h531v-338h-1614v184q0 151 164 246l852 496q-283 -23 -475 -23h-549z" />
<glyph unicode="{" horiz-adv-x="729" d="M102 692v230q131 3 131 75v545q0 268 248 268h146v-262q-131 0 -131 -47v-483q0 -164 -123 -211q123 -43 123 -213v-471q0 -47 131 -47v-260h-146q-248 0 -248 266v532q0 75 -131 78z" />
<glyph unicode="|" horiz-adv-x="444" d="M102 -182v1992h240v-1992h-240z" />
<glyph unicode="}" horiz-adv-x="729" d="M102 76q131 0 131 47v471q0 170 123 213q-123 47 -123 211v483q0 47 -131 47v262h146q248 0 248 -268v-545q0 -72 131 -75v-230q-131 -3 -131 -78v-532q0 -266 -248 -266h-146v260z" />
<glyph unicode="~" horiz-adv-x="1153" d="M109 664v284q53 57 114 85t164 28q73 0 201 -49t186 -49t103.5 8.5t78.5 25.5t52 30.5t43 35.5v-285q-52 -57 -114 -84.5t-165 -27.5q-73 0 -201 49t-186 49q-75 0 -133.5 -17.5t-84 -35t-58.5 -47.5z" />
<glyph unicode="&#xa2;" horiz-adv-x="1626" d="M102 600v418q0 401 494 401h205v219h239v-219h476v-383h-920q-92 0 -92 -80v-294q0 -82 92 -82h928v-381h-484v-199h-239v199h-205q-494 0 -494 401z" />
<glyph unicode="&#xa3;" horiz-adv-x="2103" d="M102 670v321h117v248q0 399 494 399h1288v-381h-1288q-92 0 -92 -59v-207h972v-321h-972v-289h1380v-381h-1782v670h-117z" />
<glyph unicode="&#xa5;" horiz-adv-x="2363" d="M102 1638h463l565 -735h95l575 735h461l-627 -735h445v-303h-688v-600h-402v600h-708v303h454z" />
<glyph unicode="&#xa8;" horiz-adv-x="847" d="M61 1356v274h273v-274h-273zM514 1356v274h272v-274h-272z" />
<glyph unicode="&#xab;" horiz-adv-x="1069" d="M74 537v118q0 129 55 181l418 385v-275l-268 -244q-14 -14 -18 -19t-6.5 -13.5t-2.5 -24.5v-98q0 -22 4.5 -31t22.5 -27l268 -243v-275l-418 385q-55 49 -55 181zM520 537v118q0 129 55 181l418 385v-275l-268 -244q-14 -14 -18 -19t-6.5 -13.5t-2.5 -24.5v-98 q0 -22 4.5 -31t22.5 -27l268 -243v-275l-418 385q-55 49 -55 181z" />
<glyph unicode="&#xad;" horiz-adv-x="864" d="M102 547v303h660v-303h-660z" />
<glyph unicode="&#xb4;" horiz-adv-x="671" d="M27 1300v181l645 149v-244z" />
<glyph unicode="&#xb8;" horiz-adv-x="514" d="M18 -397l107 417h334v-155l-279 -262h-162z" />
<glyph unicode="&#xbb;" horiz-adv-x="1069" d="M74 -29v275l268 243q18 18 22.5 27t4.5 31v98q0 22 -4 30t-23 27l-268 244v275l418 -385q55 -52 55 -181v-118q0 -132 -55 -181zM520 -29v275l268 243q18 18 22.5 27t4.5 31v98q0 22 -4 30t-23 27l-268 244v275l418 -385q55 -52 55 -181v-118q0 -132 -55 -181z" />
<glyph unicode="&#x2c6;" horiz-adv-x="731" d="M20 1300l205 330h283l203 -330h-215l-101 197h-61l-98 -197h-216z" />
<glyph unicode="&#x2da;" horiz-adv-x="688" d="M33 1255v193q0 182 223 182h176q225 0 225 -182v-193q0 -180 -225 -180h-176q-223 0 -223 180zM201 1270q0 -39 41 -39h204q43 0 43 39v164q0 39 -43 39h-204q-41 0 -41 -39v-164z" />
<glyph unicode="&#x2dc;" horiz-adv-x="694" d="M27 1376v180h645v-180h-645z" />
<glyph unicode="&#x401;" horiz-adv-x="2492" d="M102 401v838q0 399 494 399h1802v-381h-1802q-92 0 -92 -79v-166h1882v-381h-1882v-168q0 -82 92 -82h1808v-381h-1808q-494 0 -494 401zM883 1774v274h272v-274h-272zM1335 1774v274h273v-274h-273z" />
<glyph unicode="&#x410;" horiz-adv-x="2617" d="M0 0l858 1499q40 76 89 107.5t151 31.5h413q171 0 250 -137l856 -1501h-460l-185 322h-1329l-180 -322h-463zM838 682h938l-285 500q-42 75 -107 75h-157q-65 0 -109 -77z" />
<glyph unicode="&#x411;" horiz-adv-x="2392" d="M102 0v1638h2200v-381h-1800v-210h1327q493 0 493 -400v-248q0 -399 -493 -399h-1727zM502 381h1327q92 0 92 59v166q0 60 -92 60h-1327v-285z" />
<glyph unicode="&#x412;" horiz-adv-x="2668" d="M102 0v1638h1973q473 0 473 -399v-147q0 -157 -140 -250q158 -68 158 -226v-215q0 -401 -491 -401h-1973zM502 381h1573q92 0 92 72v149q0 53 -82 53h-1583v-274zM502 997h1585q80 0 80 66v131q0 63 -92 63h-1573v-260z" />
<glyph unicode="&#x413;" horiz-adv-x="2443" d="M102 0v1241q0 397 494 397h1786v-381h-1786q-92 0 -92 -77v-1180h-402z" />
<glyph unicode="&#x414;" horiz-adv-x="3119" d="M16 106h312l796 1395q79 137 250 137h387q89 0 143 -33.5t97 -105.5l797 -1393h309v-503h-344v137h-2407v-137h-340v503zM788 106h1547l-604 1074q-44 77 -109 77h-111q-64 0 -106 -75z" />
<glyph unicode="&#x415;" horiz-adv-x="2492" d="M102 401v838q0 399 494 399h1802v-381h-1802q-92 0 -92 -79v-166h1882v-381h-1882v-168q0 -82 92 -82h1808v-381h-1808q-494 0 -494 401z" />
<glyph unicode="&#x416;" horiz-adv-x="3469" d="M6 0l879 879l-817 759h555l608 -604h325v604h359v-604h326l608 604h555l-817 -759l878 -879h-553l-645 664h-352v-664h-359v664h-352l-645 -664h-553z" />
<glyph unicode="&#x417;" horiz-adv-x="2349" d="M102 0v381h1653q92 0 92 72v149q0 53 -82 53h-1253v342h1255q80 0 80 66v131q0 63 -92 63h-1644v381h1644q473 0 473 -399v-147q0 -158 -139 -250q158 -68 158 -226v-215q0 -401 -492 -401h-1653z" />
<glyph unicode="&#x418;" horiz-adv-x="2539" d="M102 0v1638h392v-1257h20q62 0 123.5 34.5t107.5 88.5l793 913q105 118 217 169.5t273 51.5h409v-1638h-389v1257h-20q-63 0 -126 -34t-108 -88l-774 -904q-100 -122 -218.5 -176.5t-287.5 -54.5h-412z" />
<glyph unicode="&#x419;" horiz-adv-x="2539" d="M102 0v1638h392v-1257h20q62 0 123.5 34.5t107.5 88.5l793 913q105 118 217 169.5t273 51.5h409v-1638h-389v1257h-20q-63 0 -126 -34t-108 -88l-774 -904q-100 -122 -218.5 -176.5t-287.5 -54.5h-412zM924 2048h215q0 -28 6 -59t19 -63.5t38.5 -53.5t59.5 -21h28 q40 0 66 37t34.5 78.5t8.5 81.5h215q0 -36 -9 -77.5t-30 -87t-51.5 -82t-79 -60t-107.5 -23.5h-135q-72 0 -129 35t-87.5 88.5t-46 106.5t-15.5 100z" />
<glyph unicode="&#x41a;" horiz-adv-x="2461" d="M102 0v1638h400v-604h735l608 604h555l-817 -759l879 -879h-553l-645 664h-762v-664h-400z" />
<glyph unicode="&#x41b;" horiz-adv-x="2650" d="M-16 0q72 93 121 235t49 273v1130h2394v-1638h-400v1255h-1595v-770q0 -138 -44.5 -272t-111.5 -213h-413z" />
<glyph unicode="&#x41c;" horiz-adv-x="3123" d="M102 0v1638h400q196 0 314 -71t204 -242l479 -944h131l475 938q88 172 208 245.5t304 73.5h404v-1638h-381v1257h-21q-39 0 -77 -28.5t-58 -67.5l-600 -1161h-641l-602 1161q-20 39 -58.5 67.5t-78.5 28.5h-21v-1257h-381z" />
<glyph unicode="&#x41d;" horiz-adv-x="2598" d="M102 0v1638h400v-585h1595v585h400v-1638h-400v670h-1595v-670h-400z" />
<glyph unicode="&#x41e;" horiz-adv-x="2703" d="M102 520v596q0 522 617 522h1266q616 0 616 -522v-596q0 -520 -616 -520h-1266q-617 0 -617 520zM504 520q0 -139 215 -139h1266q215 0 215 139v596q0 141 -215 141h-1266q-215 0 -215 -141v-596z" />
<glyph unicode="&#x41f;" horiz-adv-x="2598" d="M102 0v1638h2395v-1638h-400v1255h-1595v-1255h-400z" />
<glyph unicode="&#x420;" horiz-adv-x="2392" d="M102 0v1638h1727q493 0 493 -399v-248q0 -399 -493 -399h-1327v-592h-400zM502 973h1327q92 0 92 59v166q0 59 -92 59h-1327v-284z" />
<glyph unicode="&#x421;" horiz-adv-x="2568" d="M102 401v838q0 399 494 399h1864v-381h-1864q-92 0 -92 -79v-715q0 -82 92 -82h1870v-381h-1870q-494 0 -494 401z" />
<glyph unicode="&#x422;" horiz-adv-x="2500" d="M102 1257v381h2296v-381h-940v-1257h-399v1257h-957z" />
<glyph unicode="&#x423;" horiz-adv-x="2566" d="M43 1638h555l702 -686l664 686h555l-1690 -1638h-555l760 727z" />
<glyph unicode="&#x424;" horiz-adv-x="2703" d="M102 858v258q0 522 617 522h1266q616 0 616 -522v-258q0 -520 -616 -520h-435v-338h-399v338h-432q-617 0 -617 520zM504 858q0 -139 215 -139h432v538h-432q-215 0 -215 -141v-258zM1550 719h435q215 0 215 139v258q0 141 -215 141h-435v-538z" />
<glyph unicode="&#x425;" horiz-adv-x="2711" d="M51 0l879 879l-817 759h559l608 -604h158l610 604h541l-817 -759l878 -879h-549l-645 664h-215l-649 -664h-541z" />
<glyph unicode="&#x426;" horiz-adv-x="2891" d="M102 0v1638h400v-1255h1595v1255h400v-1255h376v-780h-379v397h-2392z" />
<glyph unicode="&#x427;" horiz-adv-x="2629" d="M102 965v673h400v-632q0 -62 94 -62h1438q92 0 92 57v637h401v-1638h-399v600q-32 -37 -178 -37h-1354q-494 0 -494 402z" />
<glyph unicode="&#x428;" horiz-adv-x="3008" d="M102 0v1638h400v-1255h764v1255h399v-1255h842v1255h399v-1638h-2804z" />
<glyph unicode="&#x429;" horiz-adv-x="3297" d="M102 0v1638h400v-1255h764v1255h399v-1255h842v1255h399v-1255h377v-780h-379v397h-2802z" />
<glyph unicode="&#x42a;" horiz-adv-x="2582" d="M29 1257v381h663v-591h1327q494 0 494 -400v-248q0 -399 -494 -399h-1726v1257h-264zM692 381h1327q92 0 92 59v166q0 60 -92 60h-1327v-285z" />
<glyph unicode="&#x42b;" horiz-adv-x="2988" d="M102 0v1638h400v-591h1327q493 0 493 -400v-248q0 -399 -493 -399h-1727zM502 381h1327q92 0 92 59v166q0 60 -92 60h-1327v-285zM2486 0v1638h400v-1638h-400z" />
<glyph unicode="&#x42c;" horiz-adv-x="2392" d="M102 0v1638h400v-591h1327q493 0 493 -400v-248q0 -399 -493 -399h-1727zM502 381h1327q92 0 92 59v166q0 60 -92 60h-1327v-285z" />
<glyph unicode="&#x42d;" horiz-adv-x="2492" d="M88 0v381h1808q93 0 93 82v168h-1143v381h1143v166q0 79 -93 79h-1802v381h1802q494 0 494 -399v-838q0 -401 -494 -401h-1808z" />
<glyph unicode="&#x42e;" horiz-adv-x="2787" d="M102 0v1638h400v-661h299v139q0 522 616 522h651q617 0 617 -522v-596q0 -520 -617 -520h-651q-616 0 -616 520v154h-299v-674h-400zM1202 520q0 -139 215 -139h651q216 0 216 139v596q0 141 -216 141h-651q-215 0 -215 -141v-596z" />
<glyph unicode="&#x42f;" horiz-adv-x="2615" d="M0 0l678 676h-137q-473 0 -473 416v147q0 399 473 399h1972v-1638h-399v655h-924l-637 -655h-553zM449 1063q0 -66 79 -66h1586v260h-1573q-92 0 -92 -63v-131z" />
<glyph unicode="&#x430;" horiz-adv-x="1728" d="M102 285v182q0 274 316 274h807v84q0 80 -92 80h-1008v316h1042q459 0 459 -371v-510q0 -340 -459 -340h-749q-316 0 -316 285zM504 406q0 -82 78 -82h551q92 0 92 88v84h-643q-78 0 -78 -90z" />
<glyph unicode="&#x431;" d="M102 401v1278h965v-315h-565v-252h727q493 0 493 -401v-310q0 -401 -493 -401h-633q-494 0 -494 401zM502 420q0 -82 94 -82h633q92 0 92 82v272q0 80 -92 80h-727v-352z" />
<glyph unicode="&#x432;" horiz-adv-x="1728" d="M102 0v1221h1198q316 0 316 -285v-135q0 -155 -154 -187q38 -12 63.5 -24t50.5 -33.5t37.5 -55.5t12.5 -81v-135q0 -285 -315 -285h-1209zM504 317h643q78 0 78 82q0 42 -18.5 66t-53.5 24h-649v-172zM504 731h649q72 0 72 90q0 82 -78 82h-643v-172z" />
<glyph unicode="&#x433;" d="M102 0v819q0 402 494 402h1163v-318h-1163q-92 0 -92 -80v-823h-402z" />
<glyph unicode="&#x434;" horiz-adv-x="2295" d="M23 133h184l553 950q80 138 250 138h284q159 0 240 -140l549 -948h188v-530h-323v270h-1606v-270h-319v530zM662 133h966l-344 672q-42 78 -108 78h-50q-19 0 -52 -20t-54 -56z" />
<glyph unicode="&#x435;" horiz-adv-x="1728" d="M102 371v510q0 340 459 340h750q315 0 315 -285v-174q0 -136 -77.5 -201t-237.5 -65h-807v-78q0 -80 92 -80h1010v-338h-1045q-459 0 -459 371zM504 731h643q78 0 78 90q0 82 -78 82h-551q-92 0 -92 -88v-84z" />
<glyph unicode="&#x436;" horiz-adv-x="2379" d="M0 0l555 666l-489 555h432l370 -439h154v439h336v-439h153l371 439h432l-489 -555l555 -666h-449l-379 477h-194v-477h-336v477h-195l-378 -477h-449z" />
<glyph unicode="&#x437;" horiz-adv-x="1589" d="M74 0v260h930q92 0 92 78v82q0 76 -80 76h-692v231h692q80 0 80 76v82q0 78 -92 78h-930v260h930q130 0 217 -14.5t149.5 -51t90.5 -98.5t28 -156v-96q0 -119 -74 -193q84 -77 84 -198v-97q0 -94 -29.5 -156t-93.5 -98t-152.5 -50.5t-219.5 -14.5h-930z" />
<glyph unicode="&#x438;" horiz-adv-x="2271" d="M104 0v1221h402v-936h16q93 0 172 90l592 680q76 89 159.5 127.5t205.5 38.5h518v-1221h-402v936h-14q-48 0 -94.5 -25.5t-81.5 -64.5l-576 -672q-79 -94 -164 -134t-212 -40h-521z" />
<glyph unicode="&#x439;" horiz-adv-x="2271" d="M104 0v1221h402v-936h16q93 0 172 90l592 680q76 89 159.5 127.5t205.5 38.5h518v-1221h-402v936h-14q-48 0 -94.5 -25.5t-81.5 -64.5l-576 -672q-79 -94 -164 -134t-212 -40h-521zM791 1630h215q0 -28 6 -59t18.5 -63t38 -53t59.5 -21h29q30 0 53 21t34 53t16.5 63 t5.5 59h215q0 -36 -9 -77.5t-30 -87t-51.5 -82t-79 -60t-107.5 -23.5h-135q-72 0 -129 35t-87.5 88.5t-46 106.5t-15.5 100z" />
<glyph unicode="&#x43a;" horiz-adv-x="1603" d="M102 0v1221h377v-439h256l371 439h432l-489 -555l555 -666h-449l-379 477h-297v-477h-377z" />
<glyph unicode="&#x43b;" horiz-adv-x="1849" d="M-2 0q129 176 129 387v834h1620v-1221h-399v903h-820v-506q0 -102 -36.5 -211.5t-92.5 -185.5h-401z" />
<glyph unicode="&#x43c;" horiz-adv-x="2772" d="M102 0v1221h496q142 0 230.5 -53.5t154.5 -180.5l358 -702h97l354 698q65 129 154.5 183.5t226.5 54.5h498v-1221h-398v936h-16q-59 -3 -100 -72l-447 -864h-643l-449 864q-18 31 -46 51.5t-56 20.5h-14v-936h-400z" />
<glyph unicode="&#x43d;" d="M102 0v1221h402v-441h817v441h401v-1221h-401v463h-817v-463h-402z" />
<glyph unicode="&#x43e;" d="M102 401v418q0 402 494 402h633q493 0 493 -402v-422q0 -397 -493 -397h-633q-494 0 -494 401zM504 420q0 -82 92 -82h633q94 0 94 78v407q0 80 -94 80h-633q-92 0 -92 -80v-403z" />
<glyph unicode="&#x43f;" d="M102 0v1221h1620v-1221h-399v903h-819v-903h-402z" />
<glyph unicode="&#x440;" d="M102 -397v1216q0 402 494 402h633q493 0 493 -402v-418q0 -401 -493 -401h-727v-397h-400zM502 338h727q92 0 92 80v403q0 82 -92 82h-633q-94 0 -94 -82v-483z" />
<glyph unicode="&#x441;" horiz-adv-x="1601" d="M102 401v418q0 402 494 402h920v-318h-920q-92 0 -92 -80v-403q0 -82 92 -82h928v-338h-928q-494 0 -494 401z" />
<glyph unicode="&#x442;" horiz-adv-x="1667" d="M16 903v318h1631v-318h-633v-903h-383v903h-615z" />
<glyph unicode="&#x443;" d="M102 496v725h400v-625q0 -82 94 -82h725v707h401v-1217q0 -401 -493 -401h-1063v338h1026q129 0 129 114v121h-872q-347 0 -347 320z" />
<glyph unicode="&#x444;" horiz-adv-x="2625" d="M92 401v418q0 402 494 402h522v458h399v-458h523q493 0 493 -402v-418q0 -401 -493 -401h-523v-397h-399v397h-522q-494 0 -494 401zM494 418q0 -80 92 -80h522v565h-522q-92 0 -92 -82v-403zM1507 338h523q92 0 92 80v403q0 82 -92 82h-523v-565z" />
<glyph unicode="&#x445;" horiz-adv-x="1894" d="M25 0l555 666l-490 555h436l371 -439h104l371 439h432l-489 -555l555 -666h-449l-379 477h-190l-379 -477h-448z" />
<glyph unicode="&#x446;" horiz-adv-x="2091" d="M102 0v1221h400v-904h948v904h401v-904h222v-536h-320v219h-1651z" />
<glyph unicode="&#x447;" horiz-adv-x="1794" d="M102 827v394h400v-400q0 -57 94 -57h604q92 0 92 57v400h400v-1221h-400v444q-32 -18 -118 -18h-578q-494 0 -494 401z" />
<glyph unicode="&#x448;" horiz-adv-x="2635" d="M102 0v1221h400v-904h614v904h402v-904h614v904h401v-1221h-2431z" />
<glyph unicode="&#x449;" horiz-adv-x="2772" d="M102 0v1221h400v-904h614v904h402v-904h614v904h401v-904h222v-536h-320v219h-2333z" />
<glyph unicode="&#x44a;" horiz-adv-x="1812" d="M10 903v318h578v-435h807q160 0 237.5 -65t77.5 -201v-235q0 -285 -315 -285h-1209v903h-176zM588 317h643q78 0 78 82q0 90 -78 90h-643v-172z" />
<glyph unicode="&#x44b;" horiz-adv-x="2369" d="M102 0v1221h402v-435h807q160 0 237.5 -65t77.5 -201v-235q0 -285 -315 -285h-1209zM504 317h643q78 0 78 82q0 90 -78 90h-643v-172zM1868 0v1221h399v-1221h-399z" />
<glyph unicode="&#x44c;" horiz-adv-x="1728" d="M102 0v1221h402v-435h807q160 0 237.5 -65t77.5 -201v-235q0 -285 -315 -285h-1209zM504 317h643q78 0 78 82q0 90 -78 90h-643v-172z" />
<glyph unicode="&#x44d;" horiz-adv-x="1589" d="M74 0v260h930q92 0 92 78v158h-772v231h772v156q0 78 -92 78h-930v260h940q130 0 217 -14.5t149.5 -51t90.5 -98.5t28 -156v-582q0 -94 -29.5 -156t-93.5 -98t-152.5 -50.5t-219.5 -14.5h-930z" />
<glyph unicode="&#x44e;" horiz-adv-x="2338" d="M102 0v1221h400v-447h319v45q0 402 494 402h428q493 0 493 -402v-422q0 -397 -493 -397h-428q-494 0 -494 401v70h-319v-471h-400zM1223 420q0 -82 92 -82h428q94 0 94 78v407q0 80 -94 80h-428q-92 0 -92 -80v-403z" />
<glyph unicode="&#x44f;" horiz-adv-x="1714" d="M84 0l350 475h-31q-160 0 -237.5 65t-77.5 201v195q0 285 315 285h1209v-1221h-402v475h-376l-293 -475h-457zM489 821q0 -90 78 -90h643v172h-643q-78 0 -78 -82z" />
<glyph unicode="&#x450;" horiz-adv-x="1728" d="M102 371v510q0 340 459 340h750q315 0 315 -285v-174q0 -136 -77.5 -201t-237.5 -65h-807v-78q0 -80 92 -80h1010v-338h-1045q-459 0 -459 371zM504 731h643q78 0 78 90q0 82 -78 82h-551q-92 0 -92 -88v-84zM541 1386v244l645 -149v-181z" />
<glyph unicode="&#x451;" horiz-adv-x="1728" d="M102 371v510q0 340 459 340h750q315 0 315 -285v-174q0 -136 -77.5 -201t-237.5 -65h-807v-78q0 -80 92 -80h1010v-338h-1045q-459 0 -459 371zM502 1356v274h272v-274h-272zM504 731h643q78 0 78 90q0 82 -78 82h-551q-92 0 -92 -88v-84zM954 1356v274h273v-274h-273z " />
<glyph unicode="&#x2000;" horiz-adv-x="1024" />
<glyph unicode="&#x2001;" horiz-adv-x="2048" />
<glyph unicode="&#x2002;" horiz-adv-x="1024" />
<glyph unicode="&#x2003;" horiz-adv-x="2048" />
<glyph unicode="&#x2004;" horiz-adv-x="682" />
<glyph unicode="&#x2005;" horiz-adv-x="512" />
<glyph unicode="&#x2006;" horiz-adv-x="341" />
<glyph unicode="&#x2007;" horiz-adv-x="341" />
<glyph unicode="&#x2008;" horiz-adv-x="256" />
<glyph unicode="&#x2009;" horiz-adv-x="409" />
<glyph unicode="&#x200a;" horiz-adv-x="113" />
<glyph unicode="&#x2010;" horiz-adv-x="864" d="M102 547v303h660v-303h-660z" />
<glyph unicode="&#x2011;" horiz-adv-x="864" d="M102 547v303h660v-303h-660z" />
<glyph unicode="&#x2012;" horiz-adv-x="864" d="M102 547v303h660v-303h-660z" />
<glyph unicode="&#x2013;" horiz-adv-x="1122" d="M102 547v303h918v-303h-918z" />
<glyph unicode="&#x2014;" horiz-adv-x="1755" d="M102 547v303h1551v-303h-1551z" />
<glyph unicode="&#x2018;" horiz-adv-x="432" d="M29 1483v155h272l107 -692h-101z" />
<glyph unicode="&#x2019;" horiz-adv-x="436" d="M29 946l106 692h273v-155l-279 -537h-100z" />
<glyph unicode="&#x201a;" horiz-adv-x="411" d="M18 -397l107 692h272v-156l-278 -536h-101z" />
<glyph unicode="&#x201c;" horiz-adv-x="794" d="M18 1483v155h273l106 -692h-100zM391 1483l6 155h267l106 -692h-100z" />
<glyph unicode="&#x201d;" horiz-adv-x="794" d="M18 946l107 692h266l6 -155l-278 -537h-101zM391 946l107 692h272v-155l-278 -537h-101z" />
<glyph unicode="&#x201e;" horiz-adv-x="794" d="M18 -397l107 692h266l6 -156l-278 -536h-101zM391 -397l107 692h272v-156l-278 -536h-101z" />
<glyph unicode="&#x2022;" horiz-adv-x="962" d="M102 946l379 275l379 -275l-145 -444h-467z" />
<glyph unicode="&#x2026;" horiz-adv-x="1888" d="M102 0v238h351v-238h-351zM791 0v238h352v-238h-352zM1436 0v238h350v-238h-350z" />
<glyph unicode="&#x202f;" horiz-adv-x="409" />
<glyph unicode="&#x2039;" horiz-adv-x="622" d="M74 537v118q0 129 55 181l418 385v-275l-268 -244q-14 -14 -18 -19t-6.5 -13.5t-2.5 -24.5v-98q0 -22 4.5 -31t22.5 -27l268 -243v-275l-418 385q-55 49 -55 181z" />
<glyph unicode="&#x203a;" horiz-adv-x="622" d="M74 -29v275l268 243q18 18 22.5 27t4.5 31v98q0 22 -4 30t-23 27l-268 244v275l418 -385q55 -52 55 -181v-118q0 -132 -55 -181z" />
<glyph unicode="&#x205f;" horiz-adv-x="512" />
<glyph unicode="&#x20ac;" horiz-adv-x="2496" d="M102 666l140 303h104v270q0 399 494 399h1554l-381 -381h-1173q-92 0 -92 -79v-209h976l-303 -303h-673v-203q0 -82 92 -82h1540v-381h-1540q-494 0 -494 401v265h-244z" />
<glyph unicode="&#x2122;" horiz-adv-x="1728" d="M102 1454v184h643v-184h-225v-674h-188v674h-230zM842 780v858h170l223 -542l219 542h172v-858h-188v322l-133 -322h-144l-131 320v-320h-188z" />
<glyph unicode="&#x25fc;" horiz-adv-x="1218" d="M0 0v1219h1219v-1219h-1219z" />
</font>
</defs>
</svg>
