<?xml version="1.0" standalone="no"?>
<!DOCTYPE svg PUBLIC "-//W3C//DTD SVG 1.1//EN" "http://www.w3.org/Graphics/SVG/1.1/DTD/svg11.dtd" >
<svg xmlns="http://www.w3.org/2000/svg" xmlns:xlink="http://www.w3.org/1999/xlink" version="1.1">
<metadata></metadata>
<defs>
<font id="koratakiitalic" horiz-adv-x="1748" >
<font-face units-per-em="2048" ascent="1657" descent="-391" />
<missing-glyph horiz-adv-x="880" />
<glyph unicode="&#x28;C&#x29;" horiz-adv-x="1679" d="M154 203q0 55 18 129l244 975q82 331 372 331h773q227 0 227 -204q0 -73 -16 -127l-246 -979q-82 -328 -373 -328h-772q-227 0 -227 203zM309 242q0 -36 22 -51t72 -15h758q81 0 140 52.5t79 131.5l246 979q8 31 8 56q0 37 -22.5 52t-73.5 15h-747q-88 0 -147.5 -50.5 t-80.5 -131.5l-244 -975q-10 -45 -10 -63zM567 573q0 52 74 359q80 332 373 332h401l-43 -177h-385q-76 0 -126.5 -47.5t-69.5 -128.5q-66 -282 -66 -290q0 -40 19.5 -56t62.5 -16h430l-43 -174h-401q-226 0 -226 198z" />
<glyph unicode="&#x28;R&#x29;" horiz-adv-x="1249" d="M274 690q0 51 19 129l123 488q82 331 372 331h345q225 0 225 -202q0 -70 -17 -129l-122 -492q-82 -328 -373 -328h-344q-228 0 -228 203zM412 713q0 -38 22 -54t76 -16h360q77 0 133.5 47t75.5 123l133 530q11 49 11 64q0 41 -26.5 58.5t-86.5 17.5h-360 q-69 0 -123 -48.5t-74 -127.5l-131 -527q-10 -52 -10 -67zM547 778l151 606h269q120 0 120 -90q0 -17 -36 -166q-22 -91 -123 -106l39 -244h-125l-23 230h-96l-57 -230h-119zM754 1128h143q12 0 24.5 9t16.5 22q18 77 18 78q0 10 -18 10h-156z" />
<glyph horiz-adv-x="0" />
<glyph horiz-adv-x="682" />
<glyph horiz-adv-x="880" />
<glyph unicode=" "  horiz-adv-x="880" />
<glyph unicode="&#x09;" horiz-adv-x="880" />
<glyph unicode="&#xa0;" horiz-adv-x="880" />
<glyph unicode="!" horiz-adv-x="675" d="M90 0l64 258h352l-64 -258h-352zM209 481l289 1157h352l-289 -1157h-352z" />
<glyph unicode="&#x22;" horiz-adv-x="1021" d="M395 946l43 453l60 239h266l-59 -239l-185 -453h-125zM827 946l41 453l60 239h268l-59 -239l-187 -453h-123z" />
<glyph unicode="#" horiz-adv-x="1261" d="M264 698l47 191h211l58 235h-211l49 193h211l80 321h141l-80 -321h229l80 321h146l-80 -321h211l-49 -193h-211l-58 -235h211l-47 -191h-211l-80 -319h-145l80 319h-230l-79 -319h-142l80 319h-211zM664 889h229l57 235h-229z" />
<glyph unicode="$" horiz-adv-x="1679" d="M154 213l75 301h904q52 0 83 38.5t31 94.5q0 39 -53 39h-655q-224 0 -224 180q0 23 10.5 70t55.5 231q35 136 119.5 201.5t224.5 65.5h307l51 204h211l-51 -204h526l-75 -301h-901q-41 0 -71 -40t-30 -96q0 -22 10.5 -29t38.5 -7h664q229 0 229 -164q0 -48 -67 -312 q-67 -272 -348 -272h-281l-51 -213h-211l51 213h-573z" />
<glyph unicode="%" horiz-adv-x="1884" d="M313 0l1289 1638h225l-1290 -1638h-224zM365 1067q0 49 73 332q61 239 318 239h202q211 0 211 -159q0 -49 -73 -332q-59 -238 -320 -238h-203q-208 0 -208 158zM565 1137q0 -21 33 -21h240q25 0 45 15t26 38q29 121 51 208q5 20 6 24.5t1 7.5q0 21 -33 21h-240 q-23 0 -43 -15.5t-26 -38.5q-60 -227 -60 -239zM977 158q0 44 74 331q61 240 317 240h203q211 0 211 -160q0 -44 -74 -331q-59 -238 -319 -238h-203q-209 0 -209 158zM1178 227q0 -20 32 -20h240q25 0 45.5 15t26.5 38q57 237 57 240q0 20 -33 20h-239q-24 0 -44 -15 t-26 -38q-59 -223 -59 -240z" />
<glyph unicode="&#x26;" horiz-adv-x="2252" d="M170 266q0 52 74 350q41 158 194 226q-71 65 -71 166q0 47 47 231q99 399 516 399h637l-94 -381h-629q-90 0 -111 -81q-35 -139 -35 -152q0 -17 11 -22t41 -5h923l66 260h352l-66 -260h242l-86 -342h-242l-161 -655h-1256q-352 0 -352 266zM547 412q0 -18 13.5 -24.5 t45.5 -6.5h914l67 274h-905q-74 0 -96 -75q-39 -147 -39 -168z" />
<glyph unicode="'" horiz-adv-x="589" d="M395 946l43 453l60 239h266l-59 -239l-185 -453h-125z" />
<glyph unicode="(" horiz-adv-x="747" d="M219 231q0 395 125 770.5t397 808.5h226q-311 -482 -430 -821.5t-119 -742.5q0 -236 41 -430h-207q-33 211 -33 415z" />
<glyph unicode=")" horiz-adv-x="747" d="M37 -184q311 482 430 821.5t119 742.5q0 236 -41 430h207q32 -205 32 -415q0 -395 -125 -770.5t-397 -808.5h-225z" />
<glyph unicode="*" horiz-adv-x="1130" d="M401 1235l117 211l197 -100l80 292h219l-70 -282l238 94l18 -236l-264 -102l84 -207l-189 -137l-86 213l-204 -225l-138 153l213 217z" />
<glyph unicode="+" horiz-adv-x="1363" d="M272 731l60 242h413l117 469h211l-117 -469h416l-59 -242h-416l-119 -471h-211l119 471h-414z" />
<glyph unicode="," horiz-adv-x="675" d="M90 0l64 258h352l-64 -258l-194 -264h-133l108 264h-133z" />
<glyph unicode="-" horiz-adv-x="903" d="M225 547l76 303h580l-76 -303h-580z" />
<glyph unicode="." horiz-adv-x="675" d="M90 0l64 258h352l-64 -258h-352z" />
<glyph unicode="/" horiz-adv-x="1552" d="M43 -184l1423 1822h260l-1425 -1822h-258z" />
<glyph unicode="0" horiz-adv-x="2433" d="M195 340q0 78 24 180l148 596q129 522 673 522h1024q437 0 437 -338q0 -78 -25 -184l-147 -596q-129 -520 -672 -520h-1024q-438 0 -438 340zM563 457q0 -41 28.5 -58.5t92.5 -17.5h1047q102 0 166.5 45.5t84.5 130.5l144 578q8 24 8 49q0 73 -92 73h-1071 q-214 0 -260 -184l-142 -567q-6 -27 -6 -49z" />
<glyph unicode="1" horiz-adv-x="1177" d="M254 1020l430 618h668l-408 -1638h-336l314 1257h-125l-166 -237h-377z" />
<glyph unicode="2" horiz-adv-x="2322" d="M90 0l154 621q95 391 530 391h1133q77 0 98 71q35 135 35 144q0 17 -12.5 23.5t-45.5 6.5h-1517l94 381h1503q353 0 353 -262q0 -44 -11.5 -98.5t-70.5 -296.5q-86 -350 -523 -350h-1124q-47 0 -71 -17.5t-35 -58.5l-43 -174h1599l-94 -381h-1952z" />
<glyph unicode="3" horiz-adv-x="2209" d="M90 0l94 381h1418q46 0 78.5 23t43.5 59q39 158 39 168q0 24 -43 24h-1450l86 342h1409q42 0 72.5 21.5t38.5 54.5q7 28 12.5 52.5t9 39t6.5 26.5l4.5 18t2.5 10.5t1.5 6t0.5 3.5q0 28 -51 28h-1450l94 381h1446q336 0 336 -258q0 -52 -58 -288q-41 -159 -182 -250 q90 -53 90 -158q0 -25 -63 -283q-54 -204 -183.5 -302.5t-347.5 -98.5h-1454z" />
<glyph unicode="4" horiz-adv-x="2293" d="M150 330l47 194l620 893q78 114 168 167.5t221 53.5h1043l-236 -948h309l-90 -360h-309l-82 -330h-334l82 330h-1439zM713 690h966l142 567h-645q-29 0 -62.5 -20.5t-56.5 -52.5z" />
<glyph unicode="5" horiz-adv-x="2312" d="M90 0l94 381h1555q82 0 100 76q35 139 35 145q0 29 -53 29h-1571l252 1007h1923l-94 -381h-1575l-62 -245h1202q355 0 355 -260q0 -52 -74 -355q-99 -397 -532 -397h-1555z" />
<glyph unicode="6" horiz-adv-x="2441" d="M170 266q0 62 18 135l209 838q99 399 535 399h1579l-94 -381h-1563q-102 0 -123 -94l-37 -151h1401q297 0 297 -217q0 -54 -86 -400q-99 -395 -463 -395h-1319q-354 0 -354 266zM549 418q0 -37 53 -37h1225q55 0 91.5 31t49.5 80q21 73 21 98q0 24 -14.5 32.5t-47.5 8.5 h-1329l-45 -187l-2 -12l-1.5 -9t-0.5 -5z" />
<glyph unicode="7" horiz-adv-x="2185" d="M311 0l1463 1280q-219 -23 -494 -23h-893l94 381h1907l-35 -137q-44 -167 -168 -278l-1345 -1223h-529z" />
<glyph unicode="8" horiz-adv-x="2283" d="M170 266q0 55 78 363q41 157 194 225q-71 65 -71 166q0 57 43 219q99 399 516 399h1093q336 0 336 -260q0 -53 -57 -301q-37 -153 -184 -250q92 -53 92 -157q0 -40 -62 -269q-54 -204 -184 -302.5t-348 -98.5h-1094q-352 0 -352 266zM557 414q0 -19 12 -26t43 -7h1078 q43 0 73 22t41 58q39 156 39 168q0 17 -10 21.5t-41 4.5h-1096q-36 0 -64 -18t-34 -45q-41 -168 -41 -178zM709 1024q0 -27 47 -27h1099q38 0 65.5 20.5t35.5 53.5q6 26 11 48t8.5 36.5t6.5 27t5 19.5t3 12t1.5 8t1 5t0.5 4q0 26 -47 26h-1090q-42 0 -73 -19.5t-38 -53.5 q-36 -154 -36 -160z" />
<glyph unicode="9" horiz-adv-x="2430" d="M195 0l94 381h1534q109 0 133 100l37 150h-1383q-297 0 -297 217q0 53 86 395q99 395 463 395h1309q352 0 352 -264q0 -64 -18 -137l-209 -838q-99 -399 -533 -399h-1568zM709 1063q0 -24 15 -37.5t40 -13.5h1325l45 182q4 20 4 27q0 36 -51 36h-1217q-114 0 -141 -106 q-20 -82 -20 -88z" />
<glyph unicode=":" horiz-adv-x="675" d="M90 0l64 258h352l-64 -258h-352zM244 616l63 258h352l-63 -258h-352z" />
<glyph unicode=";" horiz-adv-x="675" d="M90 0l64 258h352l-64 -258l-194 -264h-133l108 264h-133zM244 616l63 258h352l-63 -258h-352z" />
<glyph unicode="&#x3c;" horiz-adv-x="1097" d="M250 657q0 28 72 314q20 78 60 127t112 71l682 195l-82 -326l-480 -108q-31 -8 -47.5 -24t-23.5 -48q-4 -18 -8 -33t-5.5 -21.5t-3 -12t-2 -7.5t-0.5 -4q0 -18 29 -28l436 -123l-74 -293l-581 201q-81 33 -84 120z" />
<glyph unicode="=" horiz-adv-x="1363" d="M205 465l61 242h1041l-62 -242h-1040zM338 997l59 242h1041l-60 -242h-1040z" />
<glyph unicode="&#x3e;" horiz-adv-x="1097" d="M164 336l82 326l479 108q31 8 48 24t24 48q18 74 18 78q0 18 -29 28l-436 123l74 293l582 -201q81 -33 84 -121q0 -27 -72 -313q-20 -78 -60 -127.5t-112 -71.5z" />
<glyph unicode="?" horiz-adv-x="1753" d="M379 1257l94 381h1020q352 0 352 -264q0 -61 -49 -264q-102 -401 -534 -401h-84q-60 0 -87 -19t-38 -67l-47 -189h-351l66 256q85 340 518 340h86q98 0 113 70q30 128 30 129q0 28 -53 28h-1036zM547 0l63 258h353l-64 -258h-352z" />
<glyph unicode="@" horiz-adv-x="1941" d="M170 266q0 62 18 135l209 838q99 399 535 399h780q161 0 240.5 -65t79.5 -199q0 -41 -21.5 -141.5t-101.5 -419.5q-85 -340 -488 -340h-497q-219 0 -219 180q0 50 43 226q32 136 120.5 205t225.5 69h639l24 104q6 24 6 41q0 41 -53 41h-868q-73 0 -114.5 -33t-59.5 -110 l-201 -809q-4 -9 -4 -33q0 -55 63 -55h1241l-73 -299h-1170q-354 0 -354 266zM1008 780q0 -18 9.5 -24t29.5 -6h489q52 0 80.5 24.5t40.5 75.5l18 72h-567q-37 0 -68.5 -43.5t-31.5 -98.5z" />
<glyph unicode="A" horiz-adv-x="2447" d="M0 0l1128 1499q39 52 66 78t72 43.5t108 17.5h363q149 0 186 -137l381 -1501h-381l-84 322h-1169l-238 -322h-432zM932 682h825l-133 526q-7 29 -19.5 39t-39.5 10h-140q-65 0 -116 -67z" />
<glyph unicode="B" horiz-adv-x="2492" d="M90 0l408 1638h1734q336 0 336 -260q0 -63 -55 -286q-37 -153 -184 -250q92 -53 92 -158q0 -20 -64 -283q-54 -204 -184 -302.5t-348 -98.5h-1735zM537 381h1355q102 0 123 82q39 158 39 168q0 24 -45 24h-1405zM690 997h1372q40 0 68.5 21.5t36.5 54.5q18 78 32 136 q3 13 4 16.5t1 5.5q0 17 -11 21.5t-43 4.5h-1394z" />
<glyph unicode="C" horiz-adv-x="2404" d="M170 266q0 62 18 135l209 838q99 399 535 399h1640l-94 -381h-1624q-101 0 -125 -100l-174 -704q-8 -21 -8 -41q0 -31 51 -31h1667l-94 -381h-1647q-354 0 -354 266z" />
<glyph unicode="D" horiz-adv-x="2551" d="M90 0l408 1638h1685q436 0 436 -338q0 -82 -24 -184l-148 -596q-129 -520 -671 -520h-1686zM537 381h1316q103 0 166 45t82 125l148 596q8 31 8 51q0 34 -22 46.5t-78 12.5h-1401z" />
<glyph unicode="E" horiz-adv-x="2336" d="M170 266q0 62 18 135l209 838q99 399 535 399h1585l-94 -381h-1573q-51 0 -79 -21.5t-40 -74.5l-37 -149h1657l-96 -381h-1657l-45 -185l-4 -28q0 -37 43 -37h1618l-94 -381h-1592q-354 0 -354 266z" />
<glyph unicode="F" horiz-adv-x="2301" d="M90 0l307 1239q99 399 535 399h1569l-95 -381h-1544q-59 0 -90 -24t-43 -76l-41 -166h1639l-95 -381h-1638l-152 -610h-352z" />
<glyph unicode="G" horiz-adv-x="2443" d="M170 266q0 62 18 135l209 838q99 399 535 399h1646l-94 -381h-1624q-60 0 -88.5 -22t-42.5 -78l-176 -715q-1 -6 -2 -11.5t-1.5 -8.5t-0.5 -4q0 -37 45 -37h1251q59 0 87 21.5t42 76.5l129 522h355l-150 -604q-99 -397 -532 -397h-1252q-354 0 -354 266z" />
<glyph unicode="H" horiz-adv-x="2430" d="M90 0l408 1638h352l-145 -585h1402l146 585h352l-407 -1638h-353l166 670h-1403l-166 -670h-352z" />
<glyph unicode="I" horiz-adv-x="675" d="M90 0l408 1638h352l-408 -1638h-352z" />
<glyph unicode="J" horiz-adv-x="2287" d="M139 262q0 65 76 354h352q-49 -190 -49 -204q0 -31 37 -31h1131q60 0 90 24t47 84l286 1149h353l-310 -1241q-99 -397 -532 -397h-1124q-357 0 -357 262z" />
<glyph unicode="K" horiz-adv-x="2310" d="M90 0l408 1638h352l-152 -604h623l686 604h512l-895 -774l543 -864h-463l-404 664h-694l-164 -664h-352z" />
<glyph unicode="L" horiz-adv-x="2293" d="M170 264q0 60 18 133l310 1241h352l-297 -1194q-4 -20 -4 -26q0 -20 10.5 -28.5t38.5 -8.5h1591l-94 -381h-1571q-354 0 -354 264z" />
<glyph unicode="M" horiz-adv-x="2891" d="M90 0l408 1638h327q170 0 257.5 -71.5t119.5 -241.5l187 -944h114l654 938q120 172 244.5 245.5t285.5 73.5h379l-408 -1638h-336l314 1257h-17q-77 0 -157 -114l-803 -1143h-565l-242 1161q-12 55 -33 75.5t-63 20.5h-17l-313 -1257h-336z" />
<glyph unicode="N" horiz-adv-x="2377" d="M90 0l408 1638h340q141 0 227 -51.5t147 -169.5l492 -954q24 -51 50.5 -66.5t80.5 -15.5h59l314 1257h344l-408 -1638h-342q-150 0 -238 54t-149 177l-481 949q-24 48 -48.5 62.5t-78.5 14.5h-62l-313 -1257h-342z" />
<glyph unicode="O" horiz-adv-x="2523" d="M195 340q0 78 24 180l148 596q129 522 673 522h1114q437 0 437 -338q0 -78 -25 -184l-147 -596q-129 -520 -672 -520h-1114q-438 0 -438 340zM555 438q0 -31 19.5 -44t62.5 -13h1169q109 0 177.5 46.5t91.5 135.5l145 590q8 31 8 49q0 34 -22 44.5t-76 10.5h-1159 q-212 0 -260 -178l-148 -592q-8 -24 -8 -49z" />
<glyph unicode="P" horiz-adv-x="2248" d="M90 0l408 1638h1519q353 0 353 -262q0 -32 -13 -95.5t-67 -289.5q-99 -399 -533 -399h-1167l-148 -592h-352zM684 973h1155q47 0 75 21t36 53q43 172 43 186q0 16 -8.5 20t-34.5 4h-1194z" />
<glyph unicode="Q" horiz-adv-x="2523" d="M195 340q0 78 24 180l148 596q129 522 673 522h1114q437 0 437 -338q0 -78 -25 -184l-147 -596q-129 -520 -672 -520h-1114q-438 0 -438 340zM555 440q0 -59 78 -59h817l-313 485h438l293 -485q81 4 134 51.5t71 118.5l151 612q6 24 6 41q0 30 -17.5 41.5t-51.5 11.5 h-1207q-96 0 -161 -50t-84 -130l-148 -596q-6 -24 -6 -41z" />
<glyph unicode="R" horiz-adv-x="2445" d="M90 0l408 1638h1730q334 0 334 -260q0 -63 -55 -286q-102 -416 -479 -416h-156l426 -676h-440l-406 655h-848l-162 -655h-352zM690 997h1366q41 0 70.5 21.5t40.5 58.5q35 145 35 152q0 18 -9.5 23t-31.5 5h-1405z" />
<glyph unicode="S" horiz-adv-x="2387" d="M133 0l94 381h1588q43 0 71 19.5t35 54.5q35 141 35 149q0 27 -41 27h-1239q-361 0 -361 243q0 62 78 365q98 399 535 399h1591l-94 -381h-1591q-80 0 -103 -77q-33 -125 -33 -144q0 -24 33 -24h1245q353 0 353 -260q0 -52 -74 -355q-99 -397 -531 -397h-1591z" />
<glyph unicode="T" horiz-adv-x="2342" d="M403 1257l95 381h2019l-94 -381h-826l-313 -1257h-352l313 1257h-842z" />
<glyph unicode="U" horiz-adv-x="2457" d="M170 266q0 62 18 135l310 1237h352l-303 -1210q-2 -4 -2 -16q0 -31 41 -31h1263q65 0 95.5 22.5t44.5 77.5l288 1157h355l-310 -1241q-99 -397 -532 -397h-1266q-354 0 -354 266z" />
<glyph unicode="V" horiz-adv-x="2422" d="M408 1638h383l301 -1220q5 -22 14 -29.5t37 -7.5h90q43 0 73.5 17.5t61.5 58.5l889 1181h430l-1128 -1501q-104 -137 -252 -137h-340q-63 0 -99 17t-51.5 44t-28.5 78z" />
<glyph unicode="W" horiz-adv-x="3110" d="M348 199l60 1439h372l-90 -1218q-3 -39 33 -39h51q64 0 111 78l688 1179h608l103 -1224q2 -20 8 -26.5t28 -6.5h52q67 0 106 90l496 1167h401l-657 -1439q-42 -88 -122.5 -143.5t-144.5 -55.5h-276q-91 0 -150 55t-67 142l-103 1069h-110l-639 -1069q-55 -89 -139 -143 t-174 -54h-275q-80 0 -127 54q-43 49 -43 131v14z" />
<glyph unicode="X" horiz-adv-x="2529" d="M45 0l991 889l-530 749h432l412 -604h145l700 604h490l-909 -770l557 -868h-445l-413 664h-195l-735 -664h-500z" />
<glyph unicode="Y" horiz-adv-x="2043" d="M408 1638h389l348 -764l719 764h444l-1036 -1083l-137 -555h-355l135 547z" />
<glyph unicode="Z" horiz-adv-x="2330" d="M74 0l59 240q39 151 242 262l1478 792q-363 -22 -694 -22h-762l92 366h2003l-61 -243q-44 -176 -182 -252l-1526 -805q387 29 661 29h826l-90 -367h-2046z" />
<glyph unicode="[" horiz-adv-x="688" d="M43 -184l498 1994h364l-65 -262h-135l-369 -1474h135l-63 -258h-365z" />
<glyph unicode="\" horiz-adv-x="1552" d="M498 1638h223l551 -1822h-221z" />
<glyph unicode="]" horiz-adv-x="688" d="M43 -184l63 258h136l368 1474h-135l66 262h364l-497 -1994h-365z" />
<glyph unicode="^" horiz-adv-x="1378" d="M297 831l506 807h444l105 -807h-244l-59 562h-134l-340 -562h-278z" />
<glyph unicode="_" horiz-adv-x="2394" d="M12 -311l58 229h2070l-57 -229h-2071z" />
<glyph unicode="`" horiz-adv-x="735" d="M362 1374l66 256l533 -149l-46 -181z" />
<glyph unicode="a" horiz-adv-x="1665" d="M145 180q0 25 2.5 45t16 79t41.5 163q71 274 348 274h709l24 105q4 28 4 31q0 28 -53 28h-901l78 316h917q328 0 328 -246q0 -45 -17 -125l-126 -510q-85 -340 -488 -340h-659q-224 0 -224 180zM535 352q0 -28 43 -28h473q103 0 131 104l18 68h-559q-42 0 -74 -47 t-32 -97z" />
<glyph unicode="b" d="M170 266q0 62 18 135l320 1278h352l-115 -458h639q353 0 353 -265q0 -53 -19.5 -144t-103.5 -411q-54 -203 -184.5 -302t-348.5 -99h-557q-354 0 -354 266zM539 373q0 -35 43 -35h561q48 0 82 26t45 68l100 404q4 28 4 32q0 35 -51 35h-657l-121 -493q-6 -21 -6 -37z" />
<glyph unicode="c" horiz-adv-x="1552" d="M170 266q0 47 18 128t105 425q54 204 184.5 303t349.5 99h809l-80 -318h-790q-48 0 -80 -26t-43 -70l-100 -404q-4 -9 -4 -30q0 -35 49 -35h837l-84 -338h-817q-354 0 -354 266z" />
<glyph unicode="d" d="M170 266q0 62 18 135l105 418q102 402 534 402h639l115 458h352l-319 -1278q-102 -401 -533 -401h-557q-354 0 -354 266zM537 365q0 -27 45 -27h567q44 0 77.5 26t45.5 72l114 467h-620q-47 0 -79.5 -26.5t-43.5 -71.5l-102 -414q-4 -20 -4 -26z" />
<glyph unicode="e" horiz-adv-x="1665" d="M164 244q0 56 18 127l127 510q82 340 488 340h659q221 0 221 -179q0 -37 -8.5 -81.5t-48.5 -198.5q-35 -136 -119 -201t-225 -65h-711l-26 -99q-4 -20 -4 -26q0 -33 49 -33h913l-84 -338h-919q-330 0 -330 244zM625 731h546q43 0 81 38.5t38 109.5q0 16 -8.5 20t-34.5 4 h-493q-90 0 -111 -94z" />
<glyph unicode="f" horiz-adv-x="946" d="M90 0l318 1280q99 399 487 399h291l-74 -297h-217q-107 0 -131 -92l-19 -69h326l-80 -318h-325l-224 -903h-352z" />
<glyph unicode="g" d="M45 -397l84 338h887q60 0 102.5 32.5t59.5 89.5l28 113h-768q-241 0 -241 199q0 30 4.5 60.5t30 138.5t81.5 329q80 318 514 318h557q367 0 367 -228q0 -41 -12 -90l-223 -899q-102 -401 -535 -401h-936zM580 549q0 -22 12 -28.5t43 -6.5h655l80 317q4 28 4 33 q0 39 -51 39h-563q-43 0 -74.5 -26t-42.5 -68l-57 -227q-6 -18 -6 -33z" />
<glyph unicode="h" horiz-adv-x="1740" d="M90 0l418 1679h352l-115 -458h631q353 0 353 -265q0 -59 -19 -137l-203 -819h-354l209 838q1 5 2 11.5t1.5 10t0.5 6.5q0 37 -55 37h-645l-224 -903h-352z" />
<glyph unicode="i" horiz-adv-x="675" d="M92 0l303 1221h350l-303 -1221h-350zM444 1421l64 258h352l-63 -258h-353z" />
<glyph unicode="j" horiz-adv-x="677" d="M-332 -397l84 338h211q112 0 137 102l293 1178h355l-304 -1219q-102 -399 -485 -399h-291zM444 1421l64 258h354l-63 -258h-355z" />
<glyph unicode="k" horiz-adv-x="1554" d="M90 0l418 1679h332l-224 -897h193l442 439h406l-561 -570l315 -651h-371l-221 477h-278l-119 -477h-332z" />
<glyph unicode="l" horiz-adv-x="675" d="M90 0l418 1679h352l-418 -1679h-352z" />
<glyph unicode="m" horiz-adv-x="2203" d="M90 0l303 1221h1446q352 0 352 -265q0 -64 -18 -137l-203 -819h-354l209 844q1 6 2 11.5t1.5 8.5t0.5 4q0 35 -51 35h-346l-224 -903h-356l223 903h-409l-224 -903h-352z" />
<glyph unicode="n" d="M90 0l303 1221h991q353 0 353 -265q0 -56 -19 -137l-202 -819h-353l211 846q4 20 4 24q0 33 -49 33h-663l-224 -903h-352z" />
<glyph unicode="o" d="M170 266q0 48 17 125t106 428q102 402 534 402h557q353 0 353 -265q0 -52 -17.5 -133.5t-105.5 -425.5q-102 -397 -533 -397h-557q-354 0 -354 266zM537 375q0 -37 53 -37h545q51 0 88.5 29.5t50.5 83.5l98 391l4 28q0 33 -55 33h-549q-50 0 -85 -28.5t-46 -73.5 l-100 -404q-4 -20 -4 -22z" />
<glyph unicode="p" d="M-8 -397l301 1216q99 402 534 402h557q353 0 353 -265q0 -56 -19 -137l-104 -418q-102 -401 -533 -401h-639l-100 -397h-350zM526 338h615q48 0 84 28.5t47 71.5l100 404q4 20 4 26q0 35 -45 35h-567q-44 0 -77 -22.5t-44 -69.5z" />
<glyph unicode="q" d="M170 266q0 35 4 64t32 149t87 340q54 204 184.5 303t349.5 99h557q353 0 353 -265q0 -56 -19 -137l-303 -1216h-352l100 397h-639q-354 0 -354 266zM539 371q0 -33 49 -33h659l123 502q6 21 6 37t-10 21t-35 5h-557q-109 0 -133 -100l-98 -402q-4 -9 -4 -30z" />
<glyph unicode="r" horiz-adv-x="1169" d="M90 0l203 819q102 402 534 402h467l-80 -318h-438q-60 0 -92 -25t-45 -85l-197 -793h-352z" />
<glyph unicode="s" horiz-adv-x="1640" d="M88 0l84 338h895q54 0 87.5 35.5t33.5 89.5q0 37 -55 37h-658q-223 0 -223 168q0 35 10 84.5t51 201.5q35 136 118.5 201.5t223.5 65.5h1047l-80 -318h-895q-45 0 -73.5 -34.5t-28.5 -80.5q0 -19 13 -24.5t48 -5.5h655q228 0 228 -166q0 -30 -10 -75.5t-60 -244.5 q-67 -272 -346 -272h-1065z" />
<glyph unicode="t" horiz-adv-x="886" d="M195 0l223 903h-180l79 318h181l94 376h338l-94 -376h196l-80 -318h-196l-224 -903h-337z" />
<glyph unicode="u" horiz-adv-x="1722" d="M170 266q0 62 18 135l205 820h352l-206 -834l-2 -12l-1.5 -9t-0.5 -4q0 -24 38 -24h545q55 0 83 20t40 70l197 793h354l-205 -824q-99 -397 -532 -397h-531q-354 0 -354 266z" />
<glyph unicode="v" horiz-adv-x="1929" d="M303 1221h373l180 -822q11 -41 20 -51t44 -10h36q36 0 67 21t67 69l575 793h424l-823 -1084q-104 -137 -252 -137h-252q-140 0 -178 139z" />
<glyph unicode="w" horiz-adv-x="2521" d="M268 199l35 1022h365l-76 -838q-2 -25 4.5 -35t24.5 -10h36q70 0 117 86l438 797h531l49 -846q1 -25 7.5 -31t25.5 -6h28q35 0 64.5 24t46.5 66l324 793h393l-471 -1022q-42 -93 -112.5 -146t-149.5 -53h-256q-91 0 -148.5 55t-62.5 142l-33 706h-72l-383 -706 q-48 -87 -131.5 -142t-173.5 -55h-256q-76 0 -122 54q-42 49 -42 130v15z" />
<glyph unicode="x" horiz-adv-x="1810" d="M23 0l653 676l-293 545h362l218 -439h92l436 439h399l-567 -568l322 -653h-367l-215 477h-174l-453 -477h-413z" />
<glyph unicode="y" d="M45 -397l84 338h870q76 0 121 34.5t64 108.5l22 92h-768q-241 0 -241 199q0 67 16 121l180 725h352l-159 -641q-6 -21 -6 -35q0 -18 10.5 -24.5t36.5 -6.5h663l176 707h353l-303 -1217q-102 -401 -535 -401h-936z" />
<glyph unicode="z" horiz-adv-x="1699" d="M74 0l53 219q30 124 158 199l903 508q-256 -23 -426 -23h-471l80 318h1390l-59 -242q-37 -137 -174 -209l-887 -461q290 29 481 29h457l-84 -338h-1421z" />
<glyph unicode="{" horiz-adv-x="784" d="M207 -27q0 40 16 109l137 549q1 4 2 9t2 8t1 5q0 20 -22 29t-81 10l57 230q117 3 140 102l129 518q68 268 286 268h127l-65 -262q-63 0 -94 -16.5t-41 -61.5l-115 -460q-44 -165 -160 -211q68 -30 68 -123q0 -40 -12 -90l-117 -463q-2 -4 -2 -19q0 -17 20 -22.5t86 -5.5 l-65 -260h-127q-170 0 -170 157z" />
<glyph unicode="|" horiz-adv-x="534" d="M43 -182l498 1992h211l-498 -1992h-211z" />
<glyph unicode="}" horiz-adv-x="784" d="M43 -184l66 262q63 0 94 16.5t41 61.5l114 460q44 165 160 211q-67 30 -67 123q0 40 12 90l117 463q2 4 2 19q0 17 -20.5 22.5t-86.5 5.5l66 260h127q170 0 170 -157q0 -36 -17 -109l-137 -549q-4 -20 -4 -22q0 -20 21.5 -29t80.5 -10l-57 -229q-115 -3 -139 -103 l-129 -518q-68 -268 -287 -268h-127z" />
<glyph unicode="~" horiz-adv-x="1157" d="M260 664l72 305q41 45 102.5 68.5t122.5 23.5q51 0 98.5 -15.5t79.5 -33.5t82 -33.5t105 -15.5q92 0 152.5 27t113.5 73l-72 -305q-46 -46 -106 -69t-115 -23q-51 0 -99.5 15.5t-81 33.5t-83 33.5t-105.5 15.5q-63 0 -119 -17.5t-85 -36t-62 -46.5z" />
<glyph unicode="&#xa2;" horiz-adv-x="1574" d="M219 463q0 34 4 63t32 148t87 344q105 401 535 401h180l55 219h211l-55 -219h418l-95 -383h-794q-100 0 -121 -96l-74 -295q-6 -24 -6 -39q0 -17 9.5 -21.5t37.5 -4.5h842l-94 -381h-426l-50 -199h-210l49 199h-181q-354 0 -354 264z" />
<glyph unicode="&#xa3;" horiz-adv-x="1994" d="M193 0l165 670h-102l80 321h102l62 248q102 399 534 399h1135l-94 -381h-1121q-95 0 -116 -83l-45 -183h856l-80 -321h-856l-72 -289h1214l-94 -381h-1568z" />
<glyph unicode="&#xa5;" horiz-adv-x="2224" d="M397 600l74 303h399l-372 735h391l313 -735h82l692 735h422l-737 -735h391l-74 -303h-604l-149 -600h-355l150 600h-623z" />
<glyph unicode="&#xa8;" horiz-adv-x="888" d="M391 1356l68 274h239l-67 -274h-240zM791 1356l67 274h240l-68 -274h-239z" />
<glyph unicode="&#xab;" horiz-adv-x="1083" d="M182 434q0 28 9 70t47 188q13 53 31.5 85t49.5 59l465 385l-73 -299l-293 -242q-23 -17 -29.5 -28t-17.5 -48q-25 -83 -25 -104q0 -16 10 -29l179 -250l-62 -250l-272 385q-19 24 -19 78zM575 434q0 28 9 70t47 188q13 53 31.5 85t50.5 59l465 385l-74 -299l-293 -242 q-23 -17 -29.5 -28t-17.5 -48q-25 -83 -25 -104q0 -14 11 -29l178 -250l-62 -250l-272 385q-19 24 -19 78z" />
<glyph unicode="&#xad;" horiz-adv-x="903" d="M225 547l76 303h580l-76 -303h-580z" />
<glyph unicode="&#xb4;" horiz-adv-x="735" d="M346 1300l47 189l604 141l-63 -252z" />
<glyph unicode="&#xb8;" horiz-adv-x="595" d="M-82 -397l197 417h293l-39 -155l-312 -262h-139z" />
<glyph unicode="&#xbb;" horiz-adv-x="1083" d="M55 -29l74 299l293 242q23 17 29.5 28t17.5 48q25 102 25 104q0 14 -11 29l-178 250l62 250l272 -385q18 -23 18 -78q0 -20 -2 -36t-14 -68.5t-39 -153.5q-13 -53 -31.5 -85t-50.5 -59zM449 -29l73 299l293 242q23 17 29.5 28t17.5 48q25 102 25 104q0 16 -10 29 l-179 250l62 250l272 -385q19 -24 19 -78q0 -28 -9 -70t-47 -188q-13 -53 -31.5 -85t-50.5 -59z" />
<glyph unicode="&#x2c6;" horiz-adv-x="786" d="M342 1300l262 330h248l96 -330h-174l-43 197h-55l-135 -197h-199z" />
<glyph unicode="&#x2da;" horiz-adv-x="749" d="M332 1194q0 50 57 254q25 93 84 137.5t158 44.5h155q160 0 160 -123q0 -33 -57 -252q-25 -92 -83.5 -136t-158.5 -44h-155q-160 0 -160 119zM485 1243q0 -12 25 -12h180q19 0 36.5 13.5t21.5 33.5l40 164q3 9 3 18q0 13 -23 13h-180q-22 0 -37.5 -13.5t-20.5 -34.5 l-41 -163q-1 -4 -2 -8.5t-1.5 -7t-0.5 -3.5z" />
<glyph unicode="&#x2dc;" horiz-adv-x="753" d="M365 1376l45 180h569l-45 -180h-569z" />
<glyph unicode="&#x401;" horiz-adv-x="2336" d="M170 266q0 62 18 135l209 838q99 399 535 399h1585l-94 -381h-1573q-51 0 -79 -21.5t-40 -74.5l-37 -149h1657l-96 -381h-1657l-45 -185l-4 -28q0 -37 43 -37h1618l-94 -381h-1592q-354 0 -354 266zM1217 1774l67 274h240l-68 -274h-239zM1616 1774l67 274h240l-68 -274 h-239z" />
<glyph unicode="&#x410;" horiz-adv-x="2447" d="M0 0l1128 1499q39 52 66 78t72 43.5t108 17.5h363q149 0 186 -137l381 -1501h-381l-84 322h-1169l-238 -322h-432zM932 682h825l-133 526q-7 29 -19.5 39t-39.5 10h-140q-65 0 -116 -67z" />
<glyph unicode="&#x411;" horiz-adv-x="2248" d="M90 0l408 1638h1935l-94 -381h-1583l-54 -210h1168q352 0 352 -263q0 -45 -12 -101.5t-68 -283.5q-51 -202 -182 -300.5t-350 -98.5h-1520zM537 381h1146q51 0 81 20t38 52q47 167 47 192q0 21 -32 21h-1209z" />
<glyph unicode="&#x412;" horiz-adv-x="2492" d="M90 0l408 1638h1734q336 0 336 -260q0 -63 -55 -286q-37 -153 -184 -250q92 -53 92 -158q0 -20 -64 -283q-54 -204 -184 -302.5t-348 -98.5h-1735zM537 381h1355q102 0 123 82q39 158 39 168q0 24 -45 24h-1405zM690 997h1372q40 0 68.5 21.5t36.5 54.5q18 78 32 136 q3 13 4 16.5t1 5.5q0 17 -11 21.5t-43 4.5h-1394z" />
<glyph unicode="&#x413;" horiz-adv-x="2293" d="M90 0l309 1241q99 397 533 397h1571l-95 -381h-1548q-57 0 -87.5 -26.5t-47.5 -89.5l-283 -1141h-352z" />
<glyph unicode="&#x414;" horiz-adv-x="2887" d="M-84 -397l123 503h274l1049 1395q104 137 254 137h342q76 0 116.5 -33.5t59.5 -105.5l352 -1393h273l-125 -503h-303l34 137h-2117l-35 -137h-297zM748 106h1359l-262 1074q-10 35 -35 56t-55 21h-98q-24 0 -41.5 -11t-36.5 -36z" />
<glyph unicode="&#x415;" horiz-adv-x="2336" d="M170 266q0 62 18 135l209 838q99 399 535 399h1585l-94 -381h-1573q-51 0 -79 -21.5t-40 -74.5l-37 -149h1657l-96 -381h-1657l-45 -185l-4 -28q0 -37 43 -37h1618l-94 -381h-1592q-354 0 -354 266z" />
<glyph unicode="&#x416;" horiz-adv-x="3196" d="M6 0l979 891l-518 747h442l391 -604h326l152 604h315l-151 -604h262l686 604h514l-897 -774l542 -864h-462l-404 664h-334l-163 -664h-316l164 664h-287l-731 -664h-510z" />
<glyph unicode="&#x417;" horiz-adv-x="2209" d="M90 0l94 381h1434q48 0 80 22.5t43 59.5q41 168 41 172q0 20 -35 20h-1135l86 342h1084q45 0 73.5 21t36.5 55q18 82 33 141q4 18 4 21q0 12 -9.5 17t-33.5 5h-1474l94 381h1446q336 0 336 -258q0 -52 -58 -288q-41 -159 -182 -250q90 -53 90 -158q0 -25 -63 -283 q-54 -204 -183.5 -302.5t-347.5 -98.5h-1454z" />
<glyph unicode="&#x418;" horiz-adv-x="2377" d="M90 0l408 1638h344l-314 -1257h19q98 0 221 123l926 913q119 117 235 169t262 52h361l-408 -1638h-342l314 1257h-19q-101 0 -223 -122l-907 -904q-122 -122 -242.5 -176.5t-271.5 -54.5h-363z" />
<glyph unicode="&#x419;" horiz-adv-x="2377" d="M90 0l408 1638h344l-314 -1257h19q98 0 221 123l926 913q119 117 235 169t262 52h361l-408 -1638h-342l314 1257h-19q-101 0 -223 -122l-907 -904q-122 -122 -242.5 -176.5t-271.5 -54.5h-363zM1309 1946q0 58 12 102h180q-16 -88 -16 -127q0 -36 14.5 -53t50.5 -17h25 q58 0 93.5 50t62.5 147h196q-11 -47 -37.5 -100t-66 -106.5t-97.5 -88.5t-122 -35h-121q-49 0 -84.5 19.5t-54 54t-27 72.5t-8.5 82z" />
<glyph unicode="&#x41a;" horiz-adv-x="2310" d="M90 0l408 1638h352l-152 -604h623l686 604h512l-895 -774l543 -864h-463l-404 664h-694l-164 -664h-352z" />
<glyph unicode="&#x41b;" horiz-adv-x="2476" d="M-14 0q87 96 165 237.5t109 270.5l283 1130h2107l-407 -1638h-353l312 1255h-1403l-191 -770q-36 -141 -105 -271.5t-147 -213.5h-370z" />
<glyph unicode="&#x41c;" horiz-adv-x="2891" d="M90 0l408 1638h327q170 0 257.5 -71.5t119.5 -241.5l187 -944h114l654 938q120 172 244.5 245.5t285.5 73.5h379l-408 -1638h-336l314 1257h-17q-77 0 -157 -114l-803 -1143h-565l-242 1161q-12 55 -33 75.5t-63 20.5h-17l-313 -1257h-336z" />
<glyph unicode="&#x41d;" horiz-adv-x="2430" d="M90 0l408 1638h352l-145 -585h1402l146 585h352l-407 -1638h-353l166 670h-1403l-166 -670h-352z" />
<glyph unicode="&#x41e;" horiz-adv-x="2523" d="M195 340q0 78 24 180l148 596q129 522 673 522h1114q437 0 437 -338q0 -78 -25 -184l-147 -596q-129 -520 -672 -520h-1114q-438 0 -438 340zM555 438q0 -31 19.5 -44t62.5 -13h1169q109 0 177.5 46.5t91.5 135.5l145 590q8 31 8 49q0 34 -22 44.5t-76 10.5h-1159 q-212 0 -260 -178l-148 -592q-8 -24 -8 -49z" />
<glyph unicode="&#x41f;" horiz-adv-x="2430" d="M90 0l408 1638h2107l-407 -1638h-353l312 1255h-1403l-312 -1255h-352z" />
<glyph unicode="&#x420;" horiz-adv-x="2248" d="M90 0l408 1638h1519q353 0 353 -262q0 -32 -13 -95.5t-67 -289.5q-99 -399 -533 -399h-1167l-148 -592h-352zM684 973h1155q47 0 75 21t36 53q43 172 43 186q0 16 -8.5 20t-34.5 4h-1194z" />
<glyph unicode="&#x421;" horiz-adv-x="2404" d="M170 266q0 62 18 135l209 838q99 399 535 399h1640l-94 -381h-1624q-101 0 -125 -100l-174 -704q-8 -21 -8 -41q0 -31 51 -31h1667l-94 -381h-1647q-354 0 -354 266z" />
<glyph unicode="&#x422;" horiz-adv-x="2342" d="M403 1257l95 381h2019l-94 -381h-826l-313 -1257h-352l313 1257h-842z" />
<glyph unicode="&#x423;" horiz-adv-x="2402" d="M242 0l833 731l-631 907h443l467 -661l735 661h534l-1869 -1638h-512z" />
<glyph unicode="&#x424;" horiz-adv-x="2523" d="M279 678q0 47 16 130.5t72 307.5q129 522 673 522h1114q437 0 437 -338q0 -47 -16 -133t-72 -309q-129 -520 -672 -520h-383l-84 -338h-350l84 338h-381q-438 0 -438 340zM641 780q0 -34 20.5 -47.5t65.5 -13.5h465l135 538h-360q-98 0 -166 -42t-86 -119 q-74 -299 -74 -316zM1542 719h363q100 0 164.5 46.5t82.5 119.5q74 299 74 317q0 31 -19.5 43t-64.5 12h-465z" />
<glyph unicode="&#x425;" horiz-adv-x="2529" d="M45 0l991 889l-530 749h432l412 -604h145l700 604h490l-909 -770l557 -868h-445l-413 664h-195l-735 -664h-500z" />
<glyph unicode="&#x426;" horiz-adv-x="2689" d="M90 0l408 1638h352l-313 -1255h1402l314 1255h352l-313 -1255h331l-194 -780h-334l100 397h-2105z" />
<glyph unicode="&#x427;" horiz-adv-x="2457" d="M309 827q0 61 21 138l168 673h352l-160 -643q-4 -20 -4 -22q0 -29 41 -29h1266q62 0 92.5 20t42.5 70l149 604h355l-408 -1638h-352l145 584q-15 -21 -114 -21h-1239q-355 0 -355 264z" />
<glyph unicode="&#x428;" horiz-adv-x="2791" d="M90 0l408 1638h352l-313 -1255h671l314 1255h350l-313 -1255h741l313 1255h353l-408 -1638h-2468z" />
<glyph unicode="&#x429;" horiz-adv-x="3045" d="M90 0l408 1638h352l-313 -1255h671l314 1255h350l-313 -1255h741l313 1255h353l-314 -1255h332l-195 -780h-333l100 397h-2466z" />
<glyph unicode="&#x42a;" horiz-adv-x="2416" d="M258 0l313 1257h-233l94 381h584l-148 -591h1170q352 0 352 -265q0 -32 -14 -100.5t-66 -282.5q-99 -399 -532 -399h-1520zM702 381h1158q89 0 108 74q45 182 45 188q0 23 -37 23h-1202z" />
<glyph unicode="&#x42b;" horiz-adv-x="2772" d="M90 0l408 1638h352l-148 -591h1168q352 0 352 -263q0 -32 -13 -95.5t-67 -289.5q-99 -399 -532 -399h-1520zM537 381h1146q51 0 80 20t37 52q43 172 43 186q0 27 -47 27h-1188zM2187 0l408 1638h352l-407 -1638h-353z" />
<glyph unicode="&#x42c;" horiz-adv-x="2248" d="M90 0l408 1638h352l-148 -591h1168q352 0 352 -263q0 -32 -13 -95.5t-67 -289.5q-99 -399 -532 -399h-1520zM537 381h1146q45 0 77 21.5t40 52.5q45 182 45 188q0 23 -41 23h-1196z" />
<glyph unicode="&#x42d;" horiz-adv-x="2336" d="M78 0l94 381h1559q65 0 94 21.5t43 76.5l37 152h-1006l96 381h1006l47 188q4 20 4 27q0 30 -53 30h-1604l94 381h1588q352 0 352 -262q0 -56 -19 -137l-208 -838q-102 -401 -533 -401h-1591z" />
<glyph unicode="&#x42e;" horiz-adv-x="2596" d="M90 0l408 1638h352l-166 -661h262l35 139q132 522 674 522h573q436 0 436 -338q0 -82 -24 -184l-148 -596q-129 -520 -671 -520h-574q-438 0 -438 340q0 74 25 180l38 154h-262l-168 -674h-352zM1176 440q0 -34 20.5 -46.5t69.5 -12.5h624q101 0 168.5 48.5t85.5 121.5 l148 596q10 42 10 57q0 31 -20.5 42t-67.5 11h-629q-98 0 -166.5 -44t-87.5 -121l-147 -596q-8 -27 -8 -56z" />
<glyph unicode="&#x42f;" horiz-adv-x="2445" d="M0 0l764 676h-121q-334 0 -334 268q0 47 9.5 95.5t48.5 199.5q105 399 516 399h1736l-407 -1638h-352l161 655h-798l-721 -655h-502zM653 1026q0 -29 39 -29h1415l66 260h-1364q-46 0 -78 -23.5t-43 -62.5q-35 -133 -35 -145z" />
<glyph unicode="&#x430;" horiz-adv-x="1665" d="M145 180q0 25 2.5 45t16 79t41.5 163q71 274 348 274h709l24 105q4 28 4 31q0 28 -53 28h-901l78 316h917q328 0 328 -246q0 -45 -17 -125l-126 -510q-85 -340 -488 -340h-659q-224 0 -224 180zM535 352q0 -28 43 -28h473q103 0 131 104l18 68h-559q-42 0 -74 -47 t-32 -97z" />
<glyph unicode="&#x431;" d="M170 266q0 62 18 135l320 1278h848l-78 -315h-496l-63 -252h639q352 0 352 -264q0 -50 -15 -121.5t-81 -325.5q-54 -204 -183.5 -302.5t-349.5 -98.5h-557q-354 0 -354 266zM537 369q0 -31 43 -31h565q42 0 80.5 28.5t48.5 69.5q72 285 72 305q0 18 -12 24.5t-42 6.5 h-659l-88 -362q-8 -24 -8 -41z" />
<glyph unicode="&#x432;" horiz-adv-x="1665" d="M90 0l303 1221h1055q219 0 219 -179q0 -51 -47 -241q-42 -157 -182 -187q52 -21 79 -48t27 -81q0 -24 -43 -200q-73 -285 -348 -285h-1063zM520 317h557q49 0 81 43t32 97q0 32 -43 32h-584zM625 731h561q41 0 74.5 44.5t33.5 98.5q0 18 -11 23.5t-38 5.5h-579z" />
<glyph unicode="&#x433;" d="M90 0l203 819q102 402 534 402h1024l-79 -318h-992q-64 0 -95.5 -25.5t-45.5 -84.5l-197 -793h-352z" />
<glyph unicode="&#x434;" horiz-adv-x="2162" d="M-78 -397l131 530h162l721 950q108 138 256 138h250q138 0 176 -140l248 -948h166l-134 -530h-284l67 270h-1413l-67 -270h-279zM633 133h852l-144 705q-6 26 -17 35.5t-36 9.5h-53q-60 0 -121 -80z" />
<glyph unicode="&#x435;" horiz-adv-x="1665" d="M164 244q0 56 18 127l127 510q82 340 488 340h659q221 0 221 -179q0 -37 -8.5 -81.5t-48.5 -198.5q-35 -136 -119 -201t-225 -65h-711l-26 -99q-4 -20 -4 -26q0 -33 49 -33h913l-84 -338h-919q-330 0 -330 244zM625 731h546q43 0 81 38.5t38 109.5q0 16 -8.5 20t-34.5 4 h-493q-90 0 -111 -94z" />
<glyph unicode="&#x436;" horiz-adv-x="2238" d="M0 0l653 674l-293 547h359l223 -439h152l108 439h295l-108 -439h118l437 439h395l-567 -564l323 -657h-371l-223 477h-188l-119 -477h-295l119 477h-154l-452 -477h-412z" />
<glyph unicode="&#x437;" horiz-adv-x="1542" d="M66 0l63 260h797q100 0 125 92q26 111 26 117q0 27 -47 27h-622l57 231h588q87 0 112 90q25 96 25 115t-11 25t-42 6h-832l64 260h817q190 0 277 -45t87 -160q0 -47 -39 -211q-34 -125 -114 -193q35 -47 35 -114q0 -46 -35 -181q-48 -182 -165 -250.5t-349 -68.5h-817z " />
<glyph unicode="&#x438;" horiz-adv-x="2142" d="M92 0l303 1221h353l-234 -936q94 12 172 90l692 680q87 87 177.5 126.5t199.5 39.5h457l-303 -1221h-355l232 936q-90 -8 -172 -90l-674 -672q-92 -92 -184 -133t-207 -41h-457z" />
<glyph unicode="&#x439;" horiz-adv-x="2142" d="M92 0l303 1221h353l-234 -936q94 12 172 90l692 680q87 87 177.5 126.5t199.5 39.5h457l-303 -1221h-355l232 936q-90 -8 -172 -90l-674 -672q-92 -92 -184 -133t-207 -41h-457zM1090 1528q0 58 12 102h180q-16 -88 -16 -127q0 -36 14.5 -52.5t50.5 -16.5h25 q57 0 92.5 49.5t62.5 146.5h197q-11 -46 -37.5 -99.5t-66.5 -107t-98 -88.5t-122 -35h-120q-49 0 -84.5 19.5t-54 54t-27 72.5t-8.5 82z" />
<glyph unicode="&#x43a;" horiz-adv-x="1554" d="M90 0l303 1221h332l-109 -439h205l434 439h402l-567 -570l321 -651h-375l-213 477h-282l-119 -477h-332z" />
<glyph unicode="&#x43b;" horiz-adv-x="1771" d="M-2 0q160 184 211 387l207 834h1425l-303 -1221h-352l223 903h-721l-125 -506q-26 -104 -82 -213.5t-119 -183.5h-364z" />
<glyph unicode="&#x43c;" horiz-adv-x="2584" d="M90 0l303 1221h418q125 0 190 -53.5t91 -180.5l139 -702h86l485 698q90 129 181.5 183.5t214.5 54.5h456l-303 -1221h-350l231 936q-78 -15 -133 -92l-594 -844h-567l-184 891q-6 25 -19 35t-37 10h-24l-232 -936h-352z" />
<glyph unicode="&#x43d;" d="M90 0l303 1221h352l-110 -441h721l110 441h353l-303 -1221h-353l115 463h-721l-115 -463h-352z" />
<glyph unicode="&#x43e;" d="M170 266q0 48 17 125t106 428q102 402 534 402h557q353 0 353 -265q0 -52 -17.5 -133.5t-105.5 -425.5q-102 -397 -533 -397h-557q-354 0 -354 266zM537 375q0 -37 53 -37h545q51 0 88.5 29.5t50.5 83.5l98 391l4 28q0 33 -55 33h-549q-50 0 -85 -28.5t-46 -73.5 l-100 -404q-4 -20 -4 -22z" />
<glyph unicode="&#x43f;" d="M90 0l303 1221h1426l-303 -1221h-353l223 903h-720l-224 -903h-352z" />
<glyph unicode="&#x440;" d="M-8 -397l301 1216q99 402 534 402h557q353 0 353 -265q0 -56 -19 -137l-104 -418q-102 -401 -533 -401h-639l-100 -397h-350zM526 338h615q48 0 84 28.5t47 71.5l100 404q4 20 4 26q0 35 -45 35h-567q-44 0 -77 -22.5t-44 -69.5z" />
<glyph unicode="&#x441;" horiz-adv-x="1552" d="M170 266q0 47 18 128t105 425q54 204 184.5 303t349.5 99h809l-80 -318h-790q-48 0 -80 -26t-43 -70l-100 -404q-4 -9 -4 -30q0 -35 49 -35h837l-84 -338h-817q-354 0 -354 266z" />
<glyph unicode="&#x442;" horiz-adv-x="1609" d="M238 903l79 318h1436l-80 -318h-557l-223 -903h-338l223 903h-540z" />
<glyph unicode="&#x443;" d="M45 -397l84 338h870q76 0 121 34.5t64 108.5l22 92h-768q-241 0 -241 199q0 67 16 121l180 725h352l-159 -641q-6 -21 -6 -35q0 -18 10.5 -24.5t36.5 -6.5h663l176 707h353l-303 -1217q-102 -401 -535 -401h-936z" />
<glyph unicode="&#x444;" horiz-adv-x="2453" d="M162 266q0 30 5 62t32.5 149t85.5 342q54 204 184.5 303t349.5 99h459l115 458h352l-115 -458h459q352 0 352 -265q0 -49 -19 -138.5t-104 -416.5q-102 -401 -532 -401h-459l-100 -397h-353l101 397h-459q-354 0 -354 266zM528 371q0 -33 52 -33h479l139 565h-438 q-43 0 -79 -28t-48 -74q-105 -420 -105 -430zM1411 338h434q52 0 85 26.5t44 69.5q107 430 107 436q0 19 -11.5 26t-39.5 7h-480z" />
<glyph unicode="&#x445;" horiz-adv-x="1810" d="M23 0l653 676l-293 545h362l218 -439h92l436 439h399l-567 -568l322 -653h-367l-215 477h-174l-453 -477h-413z" />
<glyph unicode="&#x446;" horiz-adv-x="1982" d="M90 0l303 1221h352l-225 -904h834l225 904h354l-225 -904h195l-134 -536h-282l55 219h-1452z" />
<glyph unicode="&#x447;" horiz-adv-x="1722" d="M276 690q0 32 20.5 126.5t96.5 404.5h352q-104 -418 -104 -426q0 -31 39 -31h545q100 0 118 76l97 381h352l-303 -1221h-352l110 444q-31 -18 -233 -18h-385q-353 0 -353 264z" />
<glyph unicode="&#x448;" horiz-adv-x="2463" d="M90 0l303 1221h352l-225 -904h541l225 904h352l-225 -904h541l225 904h354l-303 -1221h-2140z" />
<glyph unicode="&#x449;" horiz-adv-x="2584" d="M90 0l303 1221h352l-225 -904h541l225 904h352l-225 -904h541l225 904h354l-225 -904h195l-133 -536h-283l55 219h-2052z" />
<glyph unicode="&#x44a;" horiz-adv-x="1738" d="M164 0l223 903h-156l80 318h510l-108 -435h708q226 0 226 -170q0 -25 -2.5 -45t-18.5 -88t-51 -198q-39 -144 -123.5 -214.5t-224.5 -70.5h-1063zM596 317h557q41 0 72.5 43t31.5 99q0 30 -40 30h-578z" />
<glyph unicode="&#x44b;" horiz-adv-x="2228" d="M90 0l303 1221h352l-108 -435h711q225 0 225 -170q0 -28 -2.5 -49.5t-18.5 -87.5t-51 -194q-39 -144 -123.5 -214.5t-224.5 -70.5h-1063zM520 317h559q41 0 76 42t35 102q0 28 -43 28h-584zM1645 0l303 1221h352l-303 -1221h-352z" />
<glyph unicode="&#x44c;" horiz-adv-x="1665" d="M90 0l303 1221h352l-108 -435h711q225 0 225 -170q0 -28 -2.5 -49.5t-18.5 -87.5t-51 -194q-39 -144 -123.5 -214.5t-224.5 -70.5h-1063zM520 317h559q41 0 76 42t35 102q0 28 -43 28h-584z" />
<glyph unicode="&#x44d;" horiz-adv-x="1542" d="M66 0l63 260h793q105 0 129 88l36 148h-679l57 231h680q45 188 45 197q0 37 -49 37h-838l66 260h827q188 0 275.5 -45.5t87.5 -159.5q0 -43 -23 -143t-139 -554q-48 -183 -165.5 -251t-348.5 -68h-817z" />
<glyph unicode="&#x44e;" horiz-adv-x="2201" d="M90 0l303 1221h352l-110 -447h280q48 233 184 340t361 107h377q352 0 352 -265q0 -33 -19.5 -123t-103.5 -436q-99 -397 -532 -397h-377q-354 0 -354 266q0 72 37 205h-281l-117 -471h-352zM1171 369q0 -18 11 -24.5t37 -6.5h362q54 0 92 28.5t49 69.5q107 436 107 441 q0 26 -43 26h-389q-48 0 -78 -25.5t-41 -68.5q-107 -412 -107 -440z" />
<glyph unicode="&#x44f;" horiz-adv-x="1652" d="M74 0l426 475q-136 0 -194 38t-58 130q0 56 61 293q71 285 348 285h1065l-303 -1221h-354l117 475h-314l-385 -475h-409zM625 770q0 -39 43 -39h579l41 172h-551q-53 0 -82.5 -37t-29.5 -96z" />
<glyph unicode="&#x450;" horiz-adv-x="1665" d="M164 244q0 56 18 127l127 510q82 340 488 340h659q221 0 221 -179q0 -37 -8.5 -81.5t-48.5 -198.5q-35 -136 -119 -201t-225 -65h-711l-26 -99q-4 -20 -4 -26q0 -33 49 -33h913l-84 -338h-919q-330 0 -330 244zM625 731h546q43 0 81 38.5t38 109.5q0 16 -8.5 20t-34.5 4 h-493q-90 0 -111 -94zM815 1374l66 256l532 -149l-45 -181z" />
<glyph unicode="&#x451;" horiz-adv-x="1665" d="M164 244q0 56 18 127l127 510q82 340 488 340h659q221 0 221 -179q0 -37 -8.5 -81.5t-48.5 -198.5q-35 -136 -119 -201t-225 -65h-711l-26 -99q-4 -20 -4 -26q0 -33 49 -33h913l-84 -338h-919q-330 0 -330 244zM625 731h546q43 0 81 38.5t38 109.5q0 16 -8.5 20t-34.5 4 h-493q-90 0 -111 -94zM778 1356l68 274h239l-67 -274h-240zM1178 1356l67 274h240l-68 -274h-239z" />
<glyph unicode="&#x2000;" horiz-adv-x="1024" />
<glyph unicode="&#x2001;" horiz-adv-x="2048" />
<glyph unicode="&#x2002;" horiz-adv-x="1024" />
<glyph unicode="&#x2003;" horiz-adv-x="2048" />
<glyph unicode="&#x2004;" horiz-adv-x="682" />
<glyph unicode="&#x2005;" horiz-adv-x="512" />
<glyph unicode="&#x2006;" horiz-adv-x="341" />
<glyph unicode="&#x2007;" horiz-adv-x="341" />
<glyph unicode="&#x2008;" horiz-adv-x="256" />
<glyph unicode="&#x2009;" horiz-adv-x="409" />
<glyph unicode="&#x200a;" horiz-adv-x="113" />
<glyph unicode="&#x2010;" horiz-adv-x="903" d="M225 547l76 303h580l-76 -303h-580z" />
<glyph unicode="&#x2011;" horiz-adv-x="903" d="M225 547l76 303h580l-76 -303h-580z" />
<glyph unicode="&#x2012;" horiz-adv-x="903" d="M225 547l76 303h580l-76 -303h-580z" />
<glyph unicode="&#x2013;" horiz-adv-x="1130" d="M225 547l76 303h807l-76 -303h-807z" />
<glyph unicode="&#x2014;" horiz-adv-x="1687" d="M225 547l76 303h1364l-76 -303h-1364z" />
<glyph unicode="&#x2018;" horiz-adv-x="524" d="M393 1483l39 155h240l-78 -692h-88z" />
<glyph unicode="&#x2019;" horiz-adv-x="526" d="M260 946l266 692h240l-39 -155l-379 -537h-88z" />
<glyph unicode="&#x201a;" horiz-adv-x="505" d="M-82 -397l264 692h240l-39 -156l-379 -536h-86z" />
<glyph unicode="&#x201c;" horiz-adv-x="841" d="M385 1483l39 155h240l-78 -692h-88zM713 1483l45 155h233l-78 -692h-88z" />
<glyph unicode="&#x201d;" horiz-adv-x="841" d="M252 946l266 692h234l-33 -155l-379 -537h-88zM580 946l266 692h239l-38 -155l-379 -537h-88z" />
<glyph unicode="&#x201e;" horiz-adv-x="841" d="M-82 -397l264 692h234l-33 -156l-379 -536h-86zM244 -397l266 692h240l-39 -156l-379 -536h-88z" />
<glyph unicode="&#x2022;" horiz-adv-x="991" d="M326 946l401 275l266 -275l-239 -444h-412z" />
<glyph unicode="&#x2026;" horiz-adv-x="1804" d="M90 0l57 238h308l-58 -238h-307zM696 0l58 238h309l-57 -238h-310zM1264 0l57 238h307l-57 -238h-307z" />
<glyph unicode="&#x202f;" horiz-adv-x="409" />
<glyph unicode="&#x2039;" horiz-adv-x="692" d="M182 434q0 28 9 70t47 188q13 53 31.5 85t49.5 59l465 385l-73 -299l-293 -242q-23 -17 -29.5 -28t-17.5 -48q-25 -83 -25 -104q0 -16 10 -29l179 -250l-62 -250l-272 385q-19 24 -19 78z" />
<glyph unicode="&#x203a;" horiz-adv-x="692" d="M55 -29l74 299l293 242q23 17 29.5 28t17.5 48q25 102 25 104q0 14 -11 29l-178 250l62 250l272 -385q18 -23 18 -78q0 -20 -2 -36t-14 -68.5t-39 -153.5q-13 -53 -31.5 -85t-50.5 -59z" />
<glyph unicode="&#x205f;" horiz-adv-x="512" />
<glyph unicode="&#x20ac;" horiz-adv-x="2340" d="M256 666l197 303h92l67 270q99 399 535 399h1368l-430 -381h-1008q-108 0 -135 -112l-45 -176h860l-340 -303h-594l-57 -226l-2 -12l-1.5 -9t-0.5 -5q0 -33 47 -33h1380l-94 -381h-1356q-354 0 -354 264q0 60 18 137l68 265h-215z" />
<glyph unicode="&#x2122;" horiz-adv-x="1665" d="M453 1454l45 184h565l-45 -184h-197l-170 -674h-166l170 674h-202zM934 780l215 858h139l62 -542l327 542h162l-215 -858h-166l82 322l-199 -322h-127l-34 320l-80 -320h-166z" />
<glyph unicode="&#x25fc;" horiz-adv-x="1218" d="M0 0v1219h1219v-1219h-1219z" />
</font>
</defs>
</svg>
